<?xml version="1.0" standalone="no"?>
<!DOCTYPE svg PUBLIC "-//W3C//DTD SVG 20010904//EN"
 "http://www.w3.org/TR/2001/REC-SVG-20010904/DTD/svg10.dtd">
<svg version="1.0" xmlns="http://www.w3.org/2000/svg"
 width="1000.000000pt" height="1000.000000pt" viewBox="0 0 1000.000000 1000.000000"
 preserveAspectRatio="xMidYMid meet">
<metadata>
Created by potrace 1.14, written by Peter Selinger 2001-2017
</metadata>
<g transform="translate(0.000000,1000.000000) scale(0.100000,-0.100000)"
fill="#000000" stroke="none">
<path d="M4660 9989 c-388 -26 -817 -109 -1195 -229 -451 -144 -960 -400
-1357 -682 -959 -680 -1652 -1684 -1948 -2823 -44 -168 -96 -423 -88 -430 3
-3 79 19 169 49 284 94 585 160 929 203 183 22 863 26 1055 5 197 -21 450 -60
609 -92 82 -16 155 -30 163 -30 11 0 13 114 13 661 l0 660 928 -4 c874 -3 935
-5 1072 -24 664 -96 1120 -317 1535 -744 272 -280 439 -565 575 -979 63 -192
147 -570 129 -583 -2 -2 -58 -22 -123 -46 -204 -73 -531 -228 -787 -372 l-67
-37 -7 142 c-26 536 -168 897 -475 1207 -135 137 -242 208 -426 283 -263 107
-329 116 -901 116 l-463 0 0 -287 0 -288 168 -64 c231 -88 460 -186 707 -304
259 -123 403 -182 803 -327 171 -63 312 -118 312 -122 0 -6 -29 -50 -98 -148
-14 -20 -122 -137 -163 -175 -5 -5 -25 -24 -42 -41 -18 -17 -51 -43 -75 -57
-23 -15 -42 -32 -42 -38 0 -5 -4 -7 -10 -4 -5 3 -10 1 -10 -5 0 -6 -4 -8 -10
-5 -5 3 -10 1 -10 -6 0 -7 -3 -9 -6 -6 -4 3 -15 -4 -24 -16 -10 -13 -41 -33
-69 -47 -28 -13 -51 -27 -51 -31 0 -4 -48 -33 -106 -65 -58 -31 -102 -59 -99
-62 3 -4 -13 -16 -37 -27 -131 -64 -248 -127 -253 -136 -4 -5 -46 -28 -93 -51
-48 -23 -89 -44 -92 -48 -15 -19 -325 -148 -403 -167 -47 -11 -184 -10 -232 2
-27 7 -51 12 -53 10 -1 -1 -6 -64 -9 -139 l-6 -136 -51 -15 c-188 -56 -721
-176 -888 -200 l-48 -7 0 113 c0 63 -3 240 -7 394 -6 252 -8 275 -20 240 -32
-95 -115 -238 -182 -315 -78 -90 -117 -130 -124 -130 -13 0 -57 -37 -51 -42 4
-5 -47 -18 -62 -17 -4 0 -10 -3 -13 -8 -8 -11 -99 -43 -141 -49 -19 -2 -48 -8
-65 -13 -16 -4 -43 -4 -59 0 -16 5 -32 6 -36 4 -23 -15 -346 -5 -525 15 -55 6
-136 15 -180 20 -79 8 -161 22 -243 40 -23 6 -58 10 -78 10 -21 0 -33 4 -29
10 4 6 -7 10 -26 10 -30 0 -118 22 -164 41 -11 4 -36 11 -55 14 -56 10 -71 16
-65 25 3 4 -12 11 -33 14 -44 8 -147 40 -216 67 -27 10 -67 19 -90 19 -26 0
-36 3 -28 9 23 14 -135 21 -236 10 -54 -6 -99 -12 -100 -14 -10 -9 131 -453
156 -491 9 -15 275 -76 472 -108 372 -61 633 -81 1085 -80 423 0 808 26 1115
74 744 117 1088 197 1580 366 536 184 1015 417 1705 832 333 199 518 304 705
397 676 338 1337 445 2075 334 147 -22 394 -69 412 -78 8 -4 -6 -25 -40 -61
-29 -30 -53 -54 -55 -52 -1 1 -17 -15 -35 -35 -29 -34 -109 -121 -227 -245
-25 -26 -51 -48 -57 -48 -7 0 -13 -3 -13 -7 0 -5 -25 -21 -55 -37 -52 -27 -69
-50 -44 -58 6 -2 -21 -21 -60 -41 -39 -21 -71 -35 -71 -32 0 3 -6 0 -14 -7
-10 -9 -11 -17 -3 -26 11 -14 0 -32 -24 -36 -8 -1 -27 -10 -42 -20 -21 -15
-25 -21 -15 -28 10 -7 7 -13 -12 -26 -13 -9 -32 -24 -41 -33 -9 -9 -25 -21
-35 -27 -18 -10 -18 -11 -1 -17 13 -6 4 -14 -40 -35 -34 -17 -50 -29 -38 -29
26 -1 9 -16 -37 -30 -23 -8 -35 -17 -32 -25 3 -8 -11 -23 -33 -36 -21 -13 -32
-25 -26 -27 14 -5 -29 -45 -61 -57 -14 -5 -16 -10 -8 -18 8 -8 4 -15 -16 -26
-15 -7 -35 -16 -46 -18 -26 -5 -33 -14 -12 -14 13 0 6 -10 -23 -34 -22 -18
-37 -36 -34 -40 8 -8 -17 -36 -52 -58 -25 -15 -27 -18 -10 -18 17 0 15 -5 -14
-29 -19 -16 -31 -33 -27 -39 4 -6 -11 -27 -34 -48 -22 -20 -37 -40 -35 -45 3
-4 -6 -16 -20 -25 -13 -9 -22 -20 -19 -26 8 -13 -25 -48 -45 -48 -14 0 -14 -2
-1 -10 12 -8 11 -13 -7 -39 -14 -18 -18 -31 -12 -33 7 -2 0 -17 -15 -35 -19
-22 -23 -33 -14 -36 9 -4 5 -12 -12 -26 -17 -14 -20 -21 -10 -21 10 -1 9 -4
-5 -10 -11 -5 -14 -9 -7 -9 9 -1 7 -10 -8 -31 -12 -17 -17 -30 -12 -30 6 0 2
-17 -8 -37 -10 -21 -16 -41 -13 -46 2 -4 -3 -19 -11 -32 -9 -14 -12 -25 -6
-25 6 0 3 -11 -6 -25 -9 -14 -14 -28 -10 -32 3 -4 -1 -17 -9 -30 -9 -13 -14
-27 -11 -31 3 -5 -4 -23 -14 -40 -11 -18 -16 -32 -11 -32 10 0 9 -14 -6 -50
-6 -14 -9 -28 -6 -32 2 -4 -1 -16 -6 -27 -6 -11 -7 -21 -2 -23 5 -2 1 -20 -9
-41 -10 -20 -14 -37 -9 -37 5 0 4 -11 -1 -25 -6 -17 -6 -25 1 -25 6 0 1 -16
-11 -35 -12 -19 -17 -35 -11 -35 8 0 6 -11 -3 -34 -8 -19 -12 -37 -9 -40 3 -2
1 -11 -3 -18 -13 -20 -13 -38 -2 -38 6 0 6 -6 -2 -15 -6 -8 -10 -20 -7 -27 2
-7 0 -24 -6 -38 -5 -14 -9 -54 -9 -90 0 -35 -4 -72 -9 -81 -6 -11 -5 -19 2
-21 7 -2 6 -13 -3 -32 -10 -23 -10 -30 0 -34 9 -3 9 -9 1 -24 -6 -11 -9 -28
-6 -39 3 -10 0 -20 -7 -23 -7 -3 -7 -5 2 -5 7 -1 11 -5 8 -9 -11 -18 -14 -62
-5 -62 6 0 7 -6 2 -13 -9 -13 -11 -117 -3 -117 9 0 4 -165 -5 -181 -7 -11 -6
-12 7 -2 13 12 14 7 6 -44 -5 -31 -5 -59 -1 -62 4 -3 8 -42 8 -86 0 -44 5 -83
10 -87 6 -5 5 -8 -3 -8 -8 0 -10 -5 -5 -12 4 -7 8 -47 9 -89 0 -42 4 -81 7
-87 4 -5 1 -13 -5 -15 -8 -3 -8 -6 -2 -6 7 -1 9 -16 4 -46 -4 -27 -3 -48 4
-55 8 -8 7 -14 -4 -20 -10 -7 -11 -10 -2 -10 8 0 11 -9 8 -23 -9 -53 9 -48
131 35 1183 807 1963 2094 2132 3518 53 438 52 811 0 1230 -112 904 -481 1774
-1053 2491 -287 359 -640 692 -1014 957 -397 282 -908 539 -1357 681 -603 192
-1251 272 -1875 230z"/>
<path d="M2994 5815 c0 -77 2 -107 3 -67 2 40 2 103 0 140 -2 37 -3 4 -3 -73z"/>
</g>
</svg>
