<?xml version="1.0" standalone="no"?>
<!DOCTYPE svg PUBLIC "-//W3C//DTD SVG 1.1//EN" "http://www.w3.org/Graphics/SVG/1.1/DTD/svg11.dtd">
<svg version="1.1" xmlns="http://www.w3.org/2000/svg" viewBox="0 0 59.337585322844234 38.155808610543545" width="118.67517064568847" height="76.31161722108709"><!-- svg-source:excalidraw --><metadata></metadata><defs><style class="style-fonts">
      </style></defs><g transform="translate(10 22.10387240702903) rotate(0 15.508086521505902 -2.5216400847976956)" stroke="none"><path fill="#1e1e1e" d="M -0.49,-1.93 Q -0.49,-1.93 1.77,-2.42 4.04,-2.91 7.04,-3.33 10.05,-3.74 13.13,-4.11 16.20,-4.48 19.02,-4.84 21.84,-5.19 23.98,-5.48 26.12,-5.76 28.41,-6.20 30.70,-6.64 30.96,-6.64 31.22,-6.65 31.48,-6.58 31.73,-6.50 31.94,-6.35 32.16,-6.20 32.31,-5.98 32.47,-5.77 32.55,-5.52 32.62,-5.27 32.62,-5.00 32.61,-4.74 32.52,-4.49 32.43,-4.24 32.27,-4.04 32.10,-3.83 31.88,-3.69 31.66,-3.55 31.41,-3.48 31.15,-3.42 30.89,-3.44 30.63,-3.46 30.38,-3.56 30.14,-3.66 29.94,-3.84 29.75,-4.01 29.62,-4.24 29.48,-4.47 29.43,-4.73 29.38,-4.99 29.42,-5.25 29.45,-5.51 29.57,-5.75 29.68,-5.98 29.87,-6.17 30.05,-6.36 30.29,-6.47 30.53,-6.59 30.79,-6.63 31.05,-6.67 31.31,-6.62 31.57,-6.57 31.80,-6.44 32.03,-6.31 32.20,-6.12 32.38,-5.92 32.48,-5.68 32.59,-5.44 32.61,-5.18 32.64,-4.91 32.57,-4.66 32.51,-4.40 32.37,-4.18 32.23,-3.96 32.02,-3.79 31.82,-3.62 31.57,-3.53 31.33,-3.44 31.33,-3.44 31.33,-3.44 28.93,-3.16 26.54,-2.88 24.40,-2.55 22.26,-2.21 19.45,-1.78 16.63,-1.35 13.60,-0.88 10.58,-0.42 7.76,0.08 4.94,0.59 2.72,1.26 0.49,1.93 0.26,1.96 0.02,1.99 -0.21,1.97 -0.45,1.94 -0.68,1.86 -0.90,1.78 -1.10,1.64 -1.30,1.51 -1.47,1.33 -1.63,1.15 -1.74,0.94 -1.86,0.72 -1.92,0.49 -1.98,0.26 -1.98,0.02 -1.98,-0.21 -1.93,-0.45 -1.87,-0.68 -1.76,-0.90 -1.65,-1.11 -1.49,-1.29 -1.34,-1.48 -1.14,-1.62 -0.94,-1.76 -0.72,-1.84 -0.49,-1.93 -0.49,-1.93 L -0.49,-1.93 Z"></path></g><g transform="translate(31.433940720780583 10) rotate(0 8.951822301031825 9.077904305271773)" stroke="none"><path fill="#1e1e1e" d="M 0.49,-1.98 Q 0.49,-1.98 3.08,-1.23 5.66,-0.49 7.92,0.14 10.17,0.78 12.12,1.42 14.07,2.06 15.45,2.51 16.84,2.97 17.60,4.24 18.36,5.52 17.25,7.61 16.14,9.70 14.58,10.90 13.03,12.10 11.27,13.36 9.51,14.63 8.13,15.72 6.76,16.81 5.24,18.22 3.71,19.63 3.44,19.83 3.16,20.02 2.84,20.11 2.52,20.21 2.19,20.19 1.85,20.18 1.54,20.06 1.22,19.94 0.96,19.73 0.71,19.52 0.53,19.23 0.35,18.95 0.27,18.62 0.20,18.29 0.23,17.96 0.26,17.63 0.40,17.32 0.53,17.01 0.76,16.77 0.98,16.52 1.28,16.36 1.57,16.20 1.90,16.14 2.23,16.08 2.56,16.13 2.90,16.18 3.19,16.33 3.49,16.48 3.73,16.72 3.96,16.96 4.11,17.26 4.25,17.57 4.29,17.90 4.34,18.23 4.27,18.56 4.20,18.89 4.03,19.18 3.86,19.47 3.61,19.69 3.36,19.91 3.05,20.04 2.74,20.17 2.41,20.19 2.07,20.21 1.75,20.13 1.42,20.05 1.14,19.86 0.86,19.68 0.65,19.41 0.45,19.15 0.34,18.83 0.22,18.52 0.22,18.18 0.21,17.85 0.32,17.53 0.42,17.21 0.62,16.94 0.82,16.67 0.82,16.67 0.82,16.67 2.58,15.22 4.35,13.76 5.71,12.69 7.08,11.61 8.70,10.17 10.32,8.73 11.61,7.64 12.89,6.56 14.08,6.39 15.27,6.21 14.17,5.72 13.06,5.23 11.20,4.66 9.34,4.09 7.05,3.59 4.77,3.10 2.13,2.54 -0.49,1.98 -0.72,1.89 -0.95,1.81 -1.16,1.66 -1.36,1.52 -1.52,1.34 -1.68,1.15 -1.80,0.93 -1.91,0.71 -1.97,0.48 -2.03,0.24 -2.03,-0.00 -2.03,-0.25 -1.97,-0.49 -1.91,-0.73 -1.79,-0.95 -1.68,-1.16 -1.51,-1.35 -1.35,-1.53 -1.14,-1.67 -0.94,-1.81 -0.71,-1.90 -0.48,-1.99 -0.23,-2.01 0.00,-2.04 0.25,-2.01 0.49,-1.98 0.49,-1.98 L 0.49,-1.98 Z"></path></g></svg>