<?xml version="1.0" standalone="no"?>
<!DOCTYPE svg PUBLIC "-//W3C//DTD SVG 1.1//EN" "http://www.w3.org/Graphics/SVG/1.1/DTD/svg11.dtd">
<svg version="1.1" xmlns="http://www.w3.org/2000/svg" viewBox="0 0 62.6157174330815 39.16446464446267" width="125.231434866163" height="78.32892928892534"><!-- svg-source:excalidraw --><metadata></metadata><defs><style class="style-fonts">
      </style></defs><g transform="translate(10 18.069248271352762) rotate(0 16.516742555425026 1.1347380381589574)" stroke="none"><path fill="#1e1e1e" d="M 0.40,-1.92 Q 0.40,-1.92 2.78,-1.33 5.15,-0.73 8.04,-0.32 10.93,0.08 14.09,0.28 17.25,0.47 20.32,0.50 23.39,0.52 25.99,0.47 28.60,0.42 30.79,0.43 32.98,0.44 33.22,0.52 33.47,0.59 33.68,0.74 33.88,0.88 34.04,1.09 34.19,1.30 34.26,1.54 34.34,1.78 34.34,2.04 34.33,2.30 34.25,2.54 34.16,2.78 34.00,2.98 33.84,3.18 33.63,3.32 33.41,3.46 33.17,3.52 32.92,3.59 32.66,3.57 32.41,3.55 32.17,3.45 31.94,3.35 31.74,3.18 31.55,3.01 31.42,2.79 31.30,2.57 31.25,2.32 31.20,2.07 31.23,1.82 31.26,1.56 31.37,1.33 31.48,1.10 31.66,0.92 31.84,0.74 32.07,0.62 32.30,0.50 32.55,0.47 32.81,0.43 33.06,0.48 33.31,0.52 33.53,0.65 33.76,0.77 33.93,0.96 34.10,1.15 34.20,1.38 34.31,1.62 34.33,1.87 34.35,2.13 34.29,2.38 34.23,2.62 34.10,2.84 33.96,3.06 33.77,3.22 33.57,3.38 33.33,3.47 33.09,3.56 32.83,3.57 32.58,3.58 32.58,3.58 32.58,3.58 30.63,3.45 28.68,3.32 26.04,3.42 23.39,3.52 20.24,3.56 17.10,3.60 13.81,3.49 10.53,3.38 7.47,3.07 4.41,2.76 2.00,2.34 -0.40,1.92 -0.63,1.84 -0.85,1.77 -1.05,1.64 -1.25,1.51 -1.41,1.34 -1.58,1.16 -1.69,0.96 -1.81,0.75 -1.87,0.52 -1.94,0.30 -1.95,0.06 -1.95,-0.17 -1.90,-0.40 -1.86,-0.63 -1.75,-0.85 -1.65,-1.06 -1.50,-1.24 -1.35,-1.42 -1.16,-1.56 -0.97,-1.71 -0.75,-1.80 -0.53,-1.89 -0.29,-1.92 -0.06,-1.96 0.17,-1.94 0.40,-1.92 0.40,-1.92 L 0.40,-1.92 Z"></path></g><g transform="translate(31.433940720780583 10) rotate(0 10.590888356150458 9.582232322231334)" stroke="none"><path fill="#1e1e1e" d="M 1.14,-1.78 Q 1.14,-1.78 3.11,-0.38 5.08,1.00 7.37,2.31 9.65,3.62 11.98,4.54 14.31,5.45 16.31,6.07 18.31,6.70 19.67,7.31 21.04,7.91 21.14,9.03 21.24,10.14 20.32,11.11 19.41,12.08 18.26,12.80 17.11,13.52 15.81,14.36 14.50,15.19 12.77,16.11 11.03,17.03 9.42,17.87 7.81,18.70 6.00,19.83 4.19,20.96 3.87,21.10 3.55,21.24 3.20,21.27 2.86,21.30 2.52,21.22 2.18,21.14 1.89,20.95 1.59,20.77 1.37,20.50 1.16,20.23 1.03,19.90 0.91,19.58 0.90,19.23 0.89,18.88 0.99,18.55 1.09,18.21 1.29,17.93 1.49,17.65 1.77,17.44 2.06,17.24 2.39,17.13 2.72,17.03 3.07,17.04 3.41,17.05 3.74,17.16 4.07,17.28 4.34,17.50 4.61,17.72 4.80,18.01 4.99,18.30 5.08,18.64 5.16,18.97 5.14,19.32 5.11,19.67 4.97,19.99 4.84,20.31 4.61,20.57 4.38,20.83 4.07,21.00 3.77,21.17 3.43,21.24 3.09,21.31 2.75,21.26 2.40,21.22 2.09,21.06 1.78,20.91 1.53,20.67 1.28,20.42 1.13,20.11 0.97,19.80 0.92,19.46 0.87,19.11 0.94,18.77 1.00,18.43 1.17,18.12 1.34,17.82 1.60,17.59 1.85,17.35 1.85,17.35 1.85,17.35 3.88,16.24 5.92,15.13 7.46,14.29 9.00,13.45 10.59,12.49 12.17,11.52 13.57,10.65 14.96,9.77 16.20,9.72 17.44,9.66 15.32,9.08 13.19,8.51 10.60,7.60 8.00,6.70 5.51,5.46 3.03,4.21 0.94,2.99 -1.14,1.78 -1.34,1.61 -1.53,1.45 -1.69,1.25 -1.84,1.04 -1.94,0.80 -2.03,0.57 -2.07,0.32 -2.11,0.06 -2.09,-0.18 -2.07,-0.43 -1.98,-0.68 -1.90,-0.92 -1.76,-1.13 -1.63,-1.35 -1.44,-1.52 -1.25,-1.70 -1.03,-1.82 -0.81,-1.95 -0.56,-2.02 -0.32,-2.09 -0.06,-2.10 0.18,-2.10 0.43,-2.05 0.68,-2.00 0.91,-1.89 1.14,-1.78 1.14,-1.78 L 1.14,-1.78 Z"></path></g></svg>