<?xml version="1.0" standalone="no"?>
<!DOCTYPE svg PUBLIC "-//W3C//DTD SVG 1.1//EN" "http://www.w3.org/Graphics/SVG/1.1/DTD/svg11.dtd">
<svg version="1.1" xmlns="http://www.w3.org/2000/svg" viewBox="0 0 81.07806249452688 72.24749924230616" width="162.15612498905375" height="144.49499848461232"><!-- svg-source:excalidraw --><metadata></metadata><defs><style class="style-fonts">
      </style></defs><g transform="translate(50.68366641201692 10.841006024021112) rotate(0 -20.34183320600846 9.566443523239116)" stroke="none"><path fill="#1e1e1e" d="M 0.60,1.67 Q 0.60,1.67 -0.79,2.23 -2.19,2.80 -4.33,3.71 -6.46,4.61 -8.68,5.67 -10.90,6.72 -13.54,7.95 -16.18,9.18 -19.16,10.52 -22.14,11.85 -24.71,12.98 -27.27,14.11 -29.93,15.33 -32.58,16.56 -34.40,17.43 -36.22,18.30 -38.00,19.30 -39.79,20.30 -40.00,20.41 -40.21,20.52 -40.44,20.56 -40.68,20.60 -40.91,20.56 -41.15,20.52 -41.36,20.41 -41.57,20.30 -41.73,20.13 -41.89,19.95 -41.99,19.74 -42.09,19.52 -42.12,19.29 -42.15,19.05 -42.10,18.82 -42.04,18.59 -41.92,18.38 -41.80,18.18 -41.62,18.02 -41.44,17.87 -41.22,17.78 -41.00,17.69 -40.76,17.68 -40.52,17.67 -40.29,17.73 -40.06,17.79 -39.87,17.93 -39.67,18.06 -39.53,18.25 -39.38,18.44 -39.30,18.66 -39.23,18.89 -39.23,19.13 -39.23,19.36 -39.30,19.59 -39.38,19.81 -39.52,20.00 -39.67,20.19 -39.86,20.33 -40.06,20.46 -40.29,20.52 -40.52,20.59 -40.76,20.58 -40.99,20.56 -41.21,20.48 -41.43,20.39 -41.62,20.23 -41.80,20.08 -41.92,19.88 -42.04,19.67 -42.09,19.44 -42.15,19.21 -42.12,18.97 -42.10,18.74 -42.00,18.52 -41.90,18.30 -41.73,18.13 -41.57,17.96 -41.57,17.96 -41.57,17.96 -39.50,16.84 -37.43,15.72 -35.60,14.87 -33.77,14.02 -31.11,12.76 -28.45,11.50 -25.91,10.33 -23.37,9.16 -20.44,7.79 -17.52,6.42 -14.94,5.12 -12.37,3.83 -10.14,2.64 -7.91,1.45 -5.70,0.35 -3.48,-0.75 -2.04,-1.21 -0.60,-1.67 -0.39,-1.71 -0.18,-1.76 0.02,-1.76 0.24,-1.76 0.44,-1.70 0.65,-1.65 0.84,-1.54 1.03,-1.44 1.18,-1.30 1.34,-1.15 1.46,-0.97 1.58,-0.80 1.65,-0.59 1.73,-0.39 1.75,-0.18 1.77,0.02 1.74,0.23 1.71,0.45 1.63,0.65 1.56,0.84 1.43,1.02 1.31,1.19 1.14,1.33 0.98,1.47 0.79,1.57 0.60,1.67 0.60,1.67 L 0.60,1.67 Z"></path></g><g transform="translate(10.315377259007846 29.238012799480998) rotate(0 4.467844502611683 6.412670933160314)" stroke="none"><path fill="#1e1e1e" d="M 2.06,-1.46 Q 2.06,-1.46 2.88,-0.31 3.69,0.83 4.54,2.05 5.39,3.27 6.04,4.14 6.68,5.01 7.36,6.00 8.05,6.98 8.66,7.88 9.27,8.78 10.32,10.51 11.36,12.24 11.37,12.67 11.37,13.11 11.24,13.52 11.11,13.93 10.85,14.28 10.59,14.63 10.24,14.88 9.88,15.13 9.47,15.25 9.05,15.38 8.62,15.36 8.18,15.34 7.78,15.19 7.37,15.03 7.04,14.76 6.70,14.48 6.47,14.11 6.24,13.75 6.14,13.32 6.04,12.90 6.09,12.47 6.13,12.04 6.30,11.64 6.48,11.24 6.77,10.92 7.06,10.61 7.44,10.40 7.83,10.19 8.25,10.11 8.68,10.03 9.11,10.10 9.54,10.16 9.92,10.36 10.31,10.56 10.61,10.87 10.92,11.18 11.11,11.57 11.29,11.96 11.35,12.39 11.40,12.82 11.31,13.24 11.23,13.67 11.01,14.04 10.79,14.42 10.46,14.71 10.14,14.99 9.74,15.16 9.34,15.33 8.90,15.36 8.47,15.39 8.05,15.28 7.63,15.17 7.27,14.93 6.91,14.69 6.64,14.35 6.37,14.01 6.23,13.60 6.08,13.19 6.08,13.19 6.08,13.19 4.88,11.54 3.69,9.88 2.50,8.03 1.31,6.17 0.43,4.96 -0.43,3.76 -1.24,2.61 -2.06,1.46 -2.21,1.19 -2.35,0.93 -2.43,0.63 -2.51,0.33 -2.51,0.03 -2.52,-0.27 -2.45,-0.56 -2.38,-0.86 -2.24,-1.13 -2.10,-1.41 -1.90,-1.64 -1.70,-1.87 -1.45,-2.05 -1.20,-2.22 -0.92,-2.34 -0.64,-2.45 -0.33,-2.49 -0.03,-2.53 0.26,-2.50 0.57,-2.46 0.86,-2.36 1.14,-2.26 1.40,-2.09 1.65,-1.92 1.86,-1.69 2.06,-1.46 2.06,-1.46 L 2.06,-1.46 Z"></path></g><g transform="translate(59.09372665222713 21.458707077286476) rotate(0 -18.659821157966462 10.512575300262824)" stroke="none"><path fill="#1e1e1e" d="M 0.99,1.56 Q 0.99,1.56 -0.68,2.59 -2.36,3.62 -3.49,4.41 -4.62,5.20 -6.43,6.19 -8.25,7.18 -10.45,8.41 -12.65,9.63 -15.71,11.24 -18.76,12.84 -21.59,14.21 -24.43,15.58 -26.43,16.57 -28.44,17.56 -29.96,18.41 -31.47,19.25 -32.56,19.99 -33.66,20.72 -34.97,21.63 -36.28,22.54 -36.55,22.67 -36.82,22.79 -37.12,22.83 -37.41,22.86 -37.70,22.79 -38.00,22.73 -38.25,22.58 -38.51,22.42 -38.70,22.20 -38.89,21.97 -39.00,21.69 -39.11,21.42 -39.13,21.12 -39.15,20.82 -39.07,20.53 -38.99,20.25 -38.82,20.00 -38.65,19.75 -38.42,19.57 -38.18,19.39 -37.90,19.30 -37.61,19.20 -37.32,19.20 -37.02,19.20 -36.74,19.30 -36.45,19.39 -36.22,19.57 -35.98,19.75 -35.81,20.00 -35.64,20.25 -35.56,20.53 -35.48,20.82 -35.50,21.12 -35.52,21.42 -35.63,21.69 -35.74,21.97 -35.93,22.20 -36.12,22.42 -36.38,22.58 -36.63,22.73 -36.92,22.79 -37.21,22.86 -37.51,22.83 -37.81,22.79 -38.08,22.67 -38.35,22.54 -38.56,22.34 -38.78,22.14 -38.92,21.87 -39.06,21.61 -39.11,21.31 -39.16,21.02 -39.11,20.73 -39.06,20.43 -38.92,20.17 -38.78,19.91 -38.56,19.70 -38.35,19.50 -38.35,19.50 -38.35,19.50 -36.88,18.58 -35.41,17.66 -34.16,17.05 -32.91,16.45 -31.33,15.71 -29.76,14.97 -27.76,13.93 -25.77,12.89 -23.02,11.48 -20.27,10.07 -17.31,8.41 -14.36,6.74 -12.22,5.40 -10.08,4.06 -8.37,2.98 -6.66,1.91 -5.47,1.26 -4.28,0.60 -2.63,-0.47 -0.99,-1.56 -0.79,-1.66 -0.59,-1.75 -0.37,-1.80 -0.15,-1.84 0.06,-1.83 0.29,-1.83 0.50,-1.76 0.72,-1.70 0.91,-1.59 1.11,-1.48 1.27,-1.33 1.43,-1.17 1.55,-0.98 1.67,-0.79 1.74,-0.58 1.81,-0.37 1.83,-0.15 1.85,0.06 1.81,0.29 1.78,0.51 1.69,0.71 1.60,0.92 1.47,1.10 1.34,1.28 1.16,1.42 0.99,1.56 0.99,1.56 L 0.99,1.56 Z"></path></g><g transform="translate(51.94517544804853 10) rotate(0 4.467844502611683 4.8883475146222395)" stroke="none"><path fill="#1e1e1e" d="M 1.95,-1.67 Q 1.95,-1.67 2.85,-0.61 3.75,0.44 4.58,1.28 5.41,2.12 6.73,3.34 8.04,4.56 9.68,6.49 11.31,8.43 11.46,8.84 11.62,9.26 11.63,9.70 11.64,10.14 11.51,10.57 11.38,10.99 11.12,11.35 10.86,11.71 10.50,11.96 10.15,12.22 9.72,12.35 9.30,12.48 8.86,12.47 8.41,12.46 8.00,12.31 7.58,12.15 7.24,11.87 6.89,11.60 6.66,11.22 6.42,10.85 6.31,10.42 6.20,9.99 6.24,9.55 6.28,9.11 6.45,8.70 6.63,8.30 6.92,7.97 7.22,7.64 7.60,7.42 7.99,7.20 8.42,7.12 8.86,7.04 9.30,7.10 9.74,7.16 10.13,7.35 10.53,7.55 10.84,7.86 11.15,8.18 11.35,8.57 11.55,8.97 11.61,9.41 11.67,9.85 11.58,10.28 11.50,10.72 11.28,11.10 11.06,11.49 10.73,11.78 10.40,12.08 10.00,12.25 9.59,12.43 9.15,12.46 8.71,12.50 8.28,12.39 7.85,12.28 7.48,12.05 7.10,11.81 6.83,11.46 6.55,11.12 6.55,11.12 6.55,11.12 5.41,9.78 4.26,8.45 2.97,7.08 1.68,5.71 0.77,4.75 -0.13,3.78 -1.04,2.72 -1.95,1.67 -2.12,1.41 -2.29,1.15 -2.39,0.86 -2.50,0.57 -2.53,0.26 -2.56,-0.04 -2.52,-0.34 -2.48,-0.65 -2.36,-0.94 -2.25,-1.23 -2.07,-1.48 -1.89,-1.73 -1.65,-1.93 -1.42,-2.13 -1.14,-2.27 -0.87,-2.41 -0.56,-2.48 -0.26,-2.55 0.04,-2.55 0.35,-2.54 0.65,-2.46 0.95,-2.38 1.22,-2.23 1.49,-2.09 1.72,-1.88 1.95,-1.67 1.95,-1.67 L 1.95,-1.67 Z"></path></g><g transform="translate(62.98337951332451 28.186755269454693) rotate(0 -19.44826430548619 10.407449547260171)" stroke="none"><path fill="#1e1e1e" d="M 1.03,1.34 Q 1.03,1.34 -0.26,2.40 -1.57,3.46 -2.91,4.42 -4.25,5.38 -6.18,6.38 -8.12,7.38 -9.62,8.21 -11.12,9.04 -13.23,10.02 -15.33,11.00 -17.63,12.07 -19.92,13.13 -22.12,14.12 -24.32,15.10 -26.42,16.00 -28.51,16.90 -30.68,17.81 -32.84,18.73 -34.01,19.42 -35.18,20.11 -36.59,21.16 -37.99,22.21 -38.24,22.32 -38.49,22.42 -38.76,22.45 -39.02,22.47 -39.29,22.40 -39.55,22.34 -39.77,22.19 -40.00,22.05 -40.17,21.84 -40.34,21.63 -40.43,21.38 -40.53,21.13 -40.53,20.86 -40.54,20.59 -40.46,20.33 -40.38,20.07 -40.23,19.85 -40.07,19.63 -39.85,19.48 -39.63,19.32 -39.38,19.24 -39.12,19.16 -38.85,19.17 -38.58,19.18 -38.33,19.27 -38.07,19.36 -37.86,19.53 -37.65,19.70 -37.51,19.92 -37.36,20.15 -37.30,20.41 -37.23,20.67 -37.25,20.94 -37.28,21.21 -37.38,21.46 -37.49,21.70 -37.67,21.91 -37.85,22.11 -38.08,22.24 -38.32,22.37 -38.58,22.42 -38.84,22.47 -39.11,22.44 -39.38,22.40 -39.62,22.28 -39.86,22.16 -40.05,21.97 -40.24,21.78 -40.36,21.54 -40.48,21.30 -40.52,21.03 -40.56,20.77 -40.50,20.50 -40.45,20.24 -40.32,20.00 -40.19,19.77 -39.99,19.59 -39.79,19.41 -39.79,19.41 -39.79,19.41 -38.20,18.30 -36.61,17.19 -35.29,16.66 -33.96,16.14 -31.83,15.19 -29.69,14.24 -27.64,13.31 -25.59,12.38 -23.45,11.34 -21.31,10.30 -19.07,9.15 -16.83,8.01 -14.82,6.93 -12.81,5.84 -11.30,5.09 -9.80,4.33 -8.07,3.31 -6.34,2.28 -5.04,1.46 -3.74,0.64 -2.39,-0.34 -1.03,-1.34 -0.86,-1.44 -0.68,-1.54 -0.48,-1.60 -0.29,-1.66 -0.09,-1.67 0.11,-1.69 0.31,-1.65 0.51,-1.61 0.70,-1.52 0.88,-1.44 1.04,-1.31 1.20,-1.19 1.33,-1.02 1.45,-0.86 1.53,-0.67 1.62,-0.49 1.65,-0.29 1.69,-0.09 1.67,0.11 1.66,0.31 1.60,0.51 1.54,0.70 1.43,0.87 1.32,1.05 1.18,1.19 1.03,1.34 1.03,1.34 L 1.03,1.34 Z"></path></g><g transform="translate(22.509964607312668 49.63240888199084) rotate(0 2.8909582075722255 6.3075451801576605)" stroke="none"><path fill="#1e1e1e" d="M 2.19,-1.36 Q 2.19,-1.36 2.96,-0.08 3.73,1.19 4.72,2.80 5.71,4.41 6.47,5.81 7.23,7.21 7.95,9.91 8.68,12.61 8.60,13.07 8.53,13.53 8.31,13.95 8.09,14.36 7.75,14.68 7.41,15.01 6.98,15.20 6.56,15.40 6.09,15.45 5.62,15.50 5.17,15.40 4.71,15.30 4.31,15.06 3.90,14.82 3.60,14.47 3.30,14.11 3.12,13.67 2.95,13.24 2.92,12.77 2.89,12.30 3.02,11.85 3.14,11.40 3.41,11.01 3.67,10.62 4.04,10.34 4.42,10.05 4.86,9.90 5.30,9.75 5.77,9.75 6.24,9.75 6.69,9.90 7.13,10.05 7.50,10.33 7.88,10.61 8.14,11.00 8.41,11.39 8.53,11.84 8.66,12.29 8.63,12.76 8.61,13.23 8.44,13.67 8.26,14.10 7.96,14.46 7.66,14.82 7.26,15.06 6.85,15.30 6.40,15.40 5.94,15.50 5.47,15.45 5.01,15.40 4.58,15.21 4.15,15.01 3.81,14.69 3.47,14.37 3.25,13.95 3.03,13.54 2.95,13.08 2.88,12.61 2.88,12.61 2.88,12.61 2.53,11.17 2.18,9.72 1.56,8.34 0.94,6.95 0.17,5.41 -0.59,3.87 -1.39,2.62 -2.19,1.36 -2.32,1.07 -2.46,0.79 -2.52,0.48 -2.57,0.18 -2.56,-0.12 -2.54,-0.43 -2.45,-0.73 -2.36,-1.03 -2.21,-1.30 -2.05,-1.57 -1.83,-1.79 -1.61,-2.01 -1.35,-2.18 -1.08,-2.34 -0.78,-2.44 -0.49,-2.53 -0.18,-2.56 0.12,-2.58 0.43,-2.52 0.74,-2.47 1.02,-2.35 1.31,-2.22 1.56,-2.03 1.80,-1.84 2.00,-1.60 2.19,-1.36 2.19,-1.36 L 2.19,-1.36 Z"></path></g><g transform="translate(62.24749924230605 28.186755269454693) rotate(0 3.6794013550919544 5.834479291645835)" stroke="none"><path fill="#1e1e1e" d="M 2.24,-1.08 Q 2.24,-1.08 2.80,0.01 3.36,1.12 4.10,2.48 4.83,3.84 5.61,5.04 6.39,6.25 7.84,8.13 9.30,10.00 9.51,10.35 9.73,10.71 9.82,11.11 9.91,11.51 9.86,11.92 9.82,12.34 9.65,12.71 9.48,13.09 9.19,13.39 8.91,13.69 8.55,13.89 8.18,14.08 7.77,14.15 7.37,14.22 6.96,14.16 6.55,14.09 6.18,13.90 5.82,13.71 5.53,13.41 5.24,13.11 5.07,12.73 4.89,12.36 4.85,11.95 4.80,11.54 4.89,11.13 4.97,10.73 5.18,10.37 5.40,10.02 5.71,9.75 6.02,9.48 6.41,9.32 6.79,9.17 7.21,9.14 7.62,9.12 8.02,9.23 8.42,9.34 8.76,9.57 9.10,9.80 9.36,10.13 9.61,10.46 9.74,10.85 9.88,11.24 9.88,11.65 9.88,12.07 9.75,12.46 9.62,12.85 9.37,13.18 9.12,13.51 8.78,13.75 8.44,13.98 8.04,14.09 7.64,14.21 7.23,14.19 6.82,14.16 6.43,14.01 6.05,13.86 5.73,13.60 5.41,13.33 5.41,13.33 5.41,13.33 3.86,11.12 2.30,8.92 1.43,7.60 0.56,6.27 -0.31,4.81 -1.19,3.34 -1.71,2.21 -2.24,1.08 -2.33,0.80 -2.43,0.52 -2.46,0.22 -2.48,-0.07 -2.44,-0.37 -2.39,-0.66 -2.28,-0.94 -2.16,-1.22 -1.99,-1.46 -1.81,-1.70 -1.58,-1.90 -1.35,-2.09 -1.08,-2.22 -0.81,-2.35 -0.51,-2.41 -0.22,-2.48 0.07,-2.47 0.37,-2.46 0.66,-2.38 0.95,-2.30 1.21,-2.15 1.47,-2.00 1.69,-1.79 1.91,-1.59 2.07,-1.34 2.24,-1.08 2.24,-1.08 L 2.24,-1.08 Z"></path></g><g transform="translate(71.07806249452688 39.64546234674117) rotate(0 -19.500827181987574 10.933078312273324)" stroke="none"><path fill="#1e1e1e" d="M 0.80,1.52 Q 0.80,1.52 -0.99,2.43 -2.79,3.35 -4.79,4.39 -6.80,5.43 -8.78,6.50 -10.76,7.57 -13.01,8.74 -15.26,9.92 -17.49,11.05 -19.73,12.18 -22.14,13.35 -24.54,14.53 -26.58,15.58 -28.61,16.64 -30.27,17.59 -31.93,18.53 -33.21,19.39 -34.49,20.26 -35.99,21.39 -37.50,22.52 -37.64,22.74 -37.79,22.96 -37.99,23.13 -38.20,23.29 -38.45,23.38 -38.70,23.47 -38.96,23.48 -39.23,23.48 -39.48,23.40 -39.73,23.32 -39.95,23.17 -40.16,23.01 -40.32,22.79 -40.47,22.58 -40.54,22.32 -40.62,22.07 -40.61,21.81 -40.60,21.54 -40.51,21.29 -40.42,21.05 -40.25,20.84 -40.08,20.64 -39.86,20.49 -39.63,20.35 -39.38,20.29 -39.12,20.23 -38.85,20.25 -38.59,20.28 -38.35,20.38 -38.11,20.49 -37.91,20.67 -37.71,20.84 -37.58,21.08 -37.46,21.31 -37.41,21.57 -37.36,21.83 -37.40,22.09 -37.44,22.35 -37.55,22.59 -37.67,22.83 -37.86,23.01 -38.05,23.20 -38.29,23.31 -38.53,23.43 -38.79,23.46 -39.05,23.50 -39.31,23.45 -39.57,23.39 -39.80,23.26 -40.03,23.13 -40.21,22.93 -40.38,22.73 -40.49,22.49 -40.59,22.24 -40.61,21.98 -40.63,21.72 -40.56,21.46 -40.50,21.20 -40.50,21.20 -40.50,21.20 -38.32,19.35 -36.15,17.49 -34.73,16.74 -33.30,15.98 -31.59,15.11 -29.88,14.23 -27.83,13.13 -25.77,12.04 -23.40,10.85 -21.02,9.67 -18.82,8.51 -16.63,7.36 -14.42,6.15 -12.22,4.94 -10.27,3.81 -8.31,2.68 -6.32,1.53 -4.34,0.39 -2.57,-0.56 -0.80,-1.52 -0.60,-1.60 -0.41,-1.67 -0.20,-1.69 -0.00,-1.72 0.20,-1.69 0.41,-1.67 0.60,-1.60 0.80,-1.52 0.97,-1.40 1.14,-1.29 1.28,-1.13 1.41,-0.98 1.51,-0.79 1.61,-0.61 1.66,-0.41 1.71,-0.20 1.71,-0.00 1.71,0.20 1.66,0.40 1.61,0.61 1.51,0.79 1.41,0.97 1.28,1.13 1.14,1.29 0.97,1.40 0.80,1.52 0.80,1.52 L 0.80,1.52 Z"></path></g><g transform="translate(49.10678011697746 48.68627710496719) rotate(0 2.628143825065763 4.572970255614337)" stroke="none"><path fill="#1e1e1e" d="M 2.07,-1.23 Q 2.07,-1.23 2.95,0.37 3.83,1.97 4.55,3.10 5.27,4.23 6.34,6.20 7.41,8.17 7.51,8.54 7.61,8.91 7.59,9.29 7.56,9.67 7.42,10.03 7.27,10.38 7.02,10.67 6.77,10.96 6.44,11.16 6.11,11.35 5.73,11.43 5.36,11.51 4.98,11.46 4.60,11.42 4.25,11.25 3.90,11.09 3.63,10.82 3.35,10.56 3.17,10.22 3.00,9.88 2.94,9.50 2.88,9.12 2.95,8.74 3.01,8.36 3.20,8.03 3.38,7.69 3.66,7.43 3.94,7.17 4.29,7.01 4.64,6.85 5.02,6.81 5.40,6.78 5.78,6.86 6.15,6.95 6.48,7.15 6.80,7.35 7.05,7.64 7.29,7.94 7.43,8.30 7.57,8.65 7.59,9.04 7.61,9.42 7.50,9.79 7.39,10.16 7.17,10.47 6.96,10.79 6.65,11.02 6.34,11.25 5.98,11.36 5.61,11.48 5.23,11.48 4.84,11.48 4.48,11.35 4.12,11.22 3.82,10.99 3.51,10.75 3.30,10.43 3.09,10.12 3.09,10.12 3.09,10.12 2.18,8.39 1.27,6.66 0.59,5.48 -0.08,4.30 -1.07,2.77 -2.07,1.23 -2.18,0.96 -2.30,0.70 -2.35,0.41 -2.40,0.13 -2.38,-0.15 -2.36,-0.44 -2.27,-0.72 -2.19,-1.00 -2.03,-1.25 -1.88,-1.49 -1.68,-1.70 -1.47,-1.90 -1.22,-2.05 -0.97,-2.20 -0.69,-2.28 -0.41,-2.37 -0.12,-2.38 0.16,-2.40 0.44,-2.35 0.73,-2.29 0.99,-2.17 1.25,-2.05 1.48,-1.87 1.71,-1.69 1.89,-1.46 2.07,-1.23 2.07,-1.23 L 2.07,-1.23 Z"></path></g><g transform="translate(37.122444274677946 28.39700677546) rotate(0 4.099904367102454 6.72804819216816)" stroke="none"><path fill="#1e1e1e" d="M 2.26,-0.80 Q 2.26,-0.80 2.77,0.65 3.27,2.10 3.80,3.14 4.33,4.17 5.09,5.53 5.85,6.88 6.68,8.03 7.51,9.18 7.12,10.05 6.72,10.92 7.07,10.77 7.43,10.62 7.81,10.59 8.19,10.56 8.56,10.66 8.93,10.75 9.26,10.96 9.58,11.17 9.82,11.47 10.05,11.77 10.18,12.13 10.31,12.49 10.32,12.88 10.33,13.26 10.22,13.63 10.10,13.99 9.88,14.30 9.65,14.61 9.34,14.83 9.02,15.06 8.66,15.17 8.29,15.28 7.91,15.26 7.52,15.25 7.16,15.12 6.81,14.98 6.51,14.74 6.21,14.50 6.01,14.17 5.80,13.85 5.71,13.48 5.62,13.10 5.65,12.72 5.69,12.34 5.84,11.99 6.00,11.64 6.25,11.35 6.51,11.07 6.85,10.88 7.18,10.70 7.56,10.63 7.94,10.56 8.31,10.61 8.69,10.66 9.04,10.84 9.38,11.01 9.65,11.28 9.92,11.55 10.09,11.90 10.25,12.24 10.30,12.62 10.35,13.00 10.28,13.38 10.20,13.76 10.01,14.09 9.82,14.42 9.54,14.68 9.25,14.93 9.25,14.93 9.25,14.93 6.47,13.44 3.69,11.95 2.72,10.61 1.76,9.28 0.84,7.77 -0.07,6.26 -0.64,4.98 -1.21,3.69 -1.74,2.25 -2.26,0.80 -2.32,0.51 -2.39,0.23 -2.38,-0.05 -2.37,-0.34 -2.30,-0.62 -2.22,-0.90 -2.08,-1.15 -1.94,-1.40 -1.75,-1.62 -1.55,-1.83 -1.31,-1.99 -1.06,-2.15 -0.79,-2.24 -0.52,-2.34 -0.23,-2.37 0.05,-2.40 0.34,-2.36 0.62,-2.32 0.89,-2.21 1.16,-2.10 1.39,-1.93 1.63,-1.76 1.82,-1.54 2.00,-1.32 2.13,-1.06 2.26,-0.80 2.26,-0.80 L 2.26,-0.80 Z"></path></g><g transform="translate(27.34574924543358 12.417892319060456) rotate(0 2.6807067015670327 3.731964231593281)" stroke="none"><path fill="#1e1e1e" d="M 2.04,-1.57 Q 2.04,-1.57 2.67,-0.81 3.31,-0.04 4.24,1.00 5.18,2.04 6.46,3.94 7.74,5.83 7.94,6.25 8.14,6.68 8.19,7.14 8.24,7.61 8.14,8.06 8.04,8.52 7.80,8.92 7.56,9.32 7.21,9.62 6.85,9.93 6.42,10.10 5.99,10.28 5.52,10.30 5.05,10.33 4.60,10.21 4.15,10.08 3.76,9.82 3.38,9.56 3.09,9.19 2.81,8.82 2.66,8.38 2.51,7.94 2.51,7.47 2.51,7.00 2.65,6.56 2.80,6.11 3.08,5.74 3.36,5.37 3.75,5.11 4.14,4.84 4.59,4.72 5.04,4.59 5.50,4.61 5.97,4.64 6.40,4.81 6.84,4.98 7.19,5.28 7.55,5.58 7.79,5.98 8.04,6.38 8.14,6.84 8.24,7.29 8.19,7.76 8.14,8.22 7.95,8.65 7.75,9.07 7.43,9.41 7.11,9.75 6.70,9.97 6.29,10.19 5.83,10.27 5.37,10.35 4.90,10.27 4.44,10.20 4.03,9.98 3.62,9.76 3.29,9.42 2.97,9.09 2.97,9.09 2.97,9.09 1.92,7.36 0.87,5.63 -0.01,4.41 -0.89,3.18 -1.47,2.38 -2.04,1.57 -2.20,1.30 -2.36,1.03 -2.45,0.74 -2.54,0.44 -2.56,0.13 -2.57,-0.17 -2.51,-0.48 -2.45,-0.79 -2.32,-1.07 -2.19,-1.35 -2.00,-1.59 -1.81,-1.84 -1.56,-2.03 -1.31,-2.22 -1.03,-2.34 -0.74,-2.47 -0.43,-2.52 -0.13,-2.57 0.17,-2.55 0.48,-2.53 0.78,-2.44 1.08,-2.34 1.34,-2.18 1.61,-2.01 1.82,-1.79 2.04,-1.57 2.04,-1.57 L 2.04,-1.57 Z"></path></g></svg>