<?xml version="1.0" standalone="no"?>
<!DOCTYPE svg PUBLIC "-//W3C//DTD SVG 1.1//EN" "http://www.w3.org/Graphics/SVG/1.1/DTD/svg11.dtd">
<svg version="1.1" xmlns="http://www.w3.org/2000/svg" viewBox="0 0 77.08328388042719 74.56026580836397" width="154.16656776085438" height="149.12053161672793"><!-- svg-source:excalidraw --><metadata></metadata><defs><style class="style-fonts">
      </style></defs><g transform="translate(51.73492394204345 10) rotate(0 -17.818815133945577 15.821425826895506)" stroke="none"><path fill="#1e1e1e" d="M 0.73,1.62 Q 0.73,1.62 -1.28,2.47 -3.30,3.32 -5.64,4.14 -7.98,4.95 -10.55,5.88 -13.13,6.81 -15.53,7.79 -17.94,8.77 -20.35,9.81 -22.76,10.85 -25.58,12.08 -28.40,13.31 -30.66,14.39 -32.93,15.47 -34.43,16.30 -35.93,17.13 -36.86,17.74 -37.79,18.34 -38.85,19.03 -39.90,19.71 -38.51,20.15 -37.12,20.59 -36.23,21.61 -35.34,22.63 -34.06,24.24 -32.78,25.84 -31.89,27.56 -31.00,29.27 -32.74,29.20 -34.48,29.13 -33.88,28.15 -33.27,27.16 -32.31,26.64 -31.34,26.11 -29.95,25.56 -28.56,25.01 -26.94,24.55 -25.31,24.10 -23.46,23.65 -21.61,23.20 -19.62,22.72 -17.63,22.25 -15.60,21.79 -13.57,21.33 -11.79,20.78 -10.02,20.24 -8.27,19.50 -6.51,18.76 -5.00,17.88 -3.49,17.01 -2.48,16.29 -1.48,15.57 0.30,14.34 2.09,13.10 3.27,12.14 4.45,11.17 5.73,11.08 7.00,10.98 7.27,11.13 7.54,11.27 7.77,11.48 8.00,11.69 8.18,11.95 8.35,12.21 8.46,12.50 8.56,12.79 8.60,13.10 8.63,13.41 8.59,13.72 8.55,14.02 8.43,14.31 8.32,14.60 8.14,14.86 7.96,15.11 7.73,15.31 7.49,15.51 7.21,15.65 6.94,15.80 6.63,15.87 6.33,15.94 6.02,15.93 5.71,15.93 5.41,15.85 5.11,15.77 4.25,14.75 3.38,13.73 2.69,12.14 2.01,10.55 1.15,9.22 0.30,7.89 -1.56,5.42 -3.42,2.95 -3.57,2.49 -3.72,2.02 -3.71,1.53 -3.71,1.05 -3.55,0.58 -3.38,0.12 -3.08,-0.25 -2.78,-0.64 -2.37,-0.91 -1.97,-1.18 -1.49,-1.30 -1.02,-1.43 -0.53,-1.39 -0.04,-1.36 0.40,-1.18 0.85,-0.99 1.22,-0.67 1.59,-0.35 1.83,0.07 2.08,0.49 2.18,0.97 2.28,1.45 2.22,1.93 2.16,2.42 1.95,2.86 1.74,3.30 1.40,3.65 1.06,4.00 0.62,4.22 0.19,4.45 -0.29,4.52 -0.77,4.59 -1.25,4.51 -1.73,4.42 -2.16,4.19 -2.59,3.96 -2.92,3.60 -3.25,3.24 -3.45,2.79 -3.65,2.34 -3.70,1.86 -3.75,1.37 -3.64,0.89 -3.52,0.42 -3.27,0.00 -3.01,-0.40 -2.63,-0.72 -2.26,-1.03 -1.80,-1.20 -1.34,-1.38 -0.85,-1.40 -0.37,-1.42 0.09,-1.28 0.56,-1.15 0.96,-0.87 1.37,-0.59 1.66,-0.19 1.95,0.19 1.95,0.19 1.95,0.19 2.69,1.33 3.42,2.46 4.28,3.61 5.13,4.75 6.18,6.64 7.22,8.52 7.11,9.75 7.00,10.98 7.27,11.13 7.54,11.27 7.77,11.48 8.00,11.69 8.18,11.95 8.35,12.21 8.46,12.50 8.56,12.79 8.60,13.10 8.63,13.41 8.59,13.72 8.55,14.02 8.43,14.31 8.32,14.60 8.14,14.86 7.96,15.11 7.73,15.31 7.49,15.51 7.21,15.65 6.94,15.80 6.63,15.87 6.33,15.94 6.02,15.93 5.71,15.93 5.41,15.85 5.11,15.77 5.93,15.65 6.75,15.53 5.61,16.22 4.46,16.92 2.54,17.95 0.63,18.98 -0.49,19.59 -1.63,20.21 -3.30,21.18 -4.97,22.16 -6.87,23.08 -8.77,24.00 -10.61,24.65 -12.45,25.31 -14.37,25.96 -16.29,26.61 -18.19,27.34 -20.10,28.07 -21.86,28.75 -23.62,29.43 -24.96,29.91 -26.30,30.39 -28.09,31.20 -29.89,32.02 -30.86,32.55 -31.83,33.08 -33.22,33.08 -34.60,33.07 -35.31,32.27 -36.03,31.47 -36.58,30.06 -37.14,28.65 -38.07,27.21 -39.00,25.76 -39.90,24.68 -40.80,23.59 -41.86,22.30 -42.92,21.01 -43.19,19.33 -43.46,17.64 -42.47,16.79 -41.48,15.93 -40.43,15.59 -39.38,15.25 -38.33,14.84 -37.28,14.43 -35.70,13.72 -34.11,13.01 -31.81,11.89 -29.51,10.77 -26.71,9.52 -23.90,8.27 -21.48,7.19 -19.05,6.10 -16.61,5.05 -14.18,4.01 -11.62,3.01 -9.06,2.02 -6.87,1.16 -4.67,0.30 -2.70,-0.66 -0.73,-1.62 -0.53,-1.69 -0.32,-1.75 -0.11,-1.76 0.10,-1.78 0.31,-1.74 0.52,-1.70 0.72,-1.61 0.91,-1.53 1.08,-1.39 1.25,-1.26 1.39,-1.09 1.52,-0.92 1.61,-0.73 1.70,-0.53 1.74,-0.32 1.78,-0.11 1.77,0.10 1.75,0.31 1.69,0.52 1.63,0.72 1.52,0.91 1.41,1.09 1.25,1.24 1.10,1.40 0.92,1.51 0.73,1.62 0.73,1.62 L 0.73,1.62 Z"></path></g><g transform="translate(58.883475146222054 28.817509787470385) rotate(0 -19.55339005848873 17.293186368932368)" stroke="none"><path fill="#1e1e1e" d="M 0.99,1.57 Q 0.99,1.57 -1.34,2.96 -3.67,4.35 -5.77,5.48 -7.86,6.61 -10.47,7.88 -13.09,9.14 -15.95,10.51 -18.80,11.88 -21.61,13.31 -24.41,14.75 -27.00,16.25 -29.59,17.75 -31.22,18.79 -32.85,19.82 -33.83,20.54 -34.82,21.25 -35.87,22.09 -36.92,22.94 -36.28,23.84 -35.65,24.73 -35.04,25.89 -34.43,27.05 -33.56,28.33 -32.68,29.61 -31.45,31.17 -30.21,32.72 -29.98,33.13 -29.74,33.54 -29.64,34.01 -29.55,34.47 -29.61,34.94 -29.67,35.41 -29.87,35.84 -30.08,36.27 -30.41,36.61 -30.74,36.94 -31.17,37.16 -31.59,37.37 -32.06,37.44 -32.53,37.51 -33.00,37.43 -33.46,37.34 -33.88,37.11 -34.29,36.88 -34.61,36.53 -34.93,36.18 -35.12,35.75 -35.32,35.32 -35.36,34.85 -35.40,34.37 -35.29,33.91 -35.18,33.45 -34.93,33.05 -34.68,32.65 -34.31,32.35 -33.95,32.04 -33.50,31.88 -33.06,31.71 -32.59,31.69 -32.11,31.67 -31.66,31.81 -31.20,31.94 -30.81,32.22 -30.43,32.49 -30.15,32.87 -29.87,33.25 -29.72,33.70 -29.58,34.16 -29.59,34.63 -29.59,35.11 -29.75,35.55 -29.91,36.00 -30.21,36.37 -30.50,36.74 -30.90,37.00 -31.29,37.26 -31.75,37.38 -32.21,37.50 -32.69,37.47 -33.16,37.43 -33.60,37.25 -34.03,37.07 -34.39,36.75 -34.75,36.44 -34.74,36.44 -34.74,36.44 -36.61,33.90 -38.47,31.36 -39.37,29.57 -40.26,27.79 -40.63,26.39 -41.01,24.98 -41.21,23.90 -41.41,22.82 -41.15,21.78 -40.88,20.75 -39.73,20.03 -38.59,19.31 -37.56,18.83 -36.54,18.35 -35.45,17.84 -34.37,17.33 -32.68,16.34 -31.00,15.35 -28.36,13.79 -25.73,12.23 -22.91,10.73 -20.10,9.24 -17.28,7.82 -14.45,6.41 -11.95,5.12 -9.45,3.82 -7.48,2.63 -5.51,1.44 -3.25,-0.06 -0.99,-1.57 -0.79,-1.67 -0.59,-1.77 -0.36,-1.81 -0.14,-1.86 0.07,-1.85 0.30,-1.84 0.51,-1.77 0.73,-1.71 0.92,-1.60 1.12,-1.49 1.28,-1.33 1.44,-1.17 1.56,-0.98 1.68,-0.79 1.75,-0.58 1.82,-0.37 1.84,-0.14 1.86,0.07 1.82,0.29 1.79,0.52 1.70,0.72 1.61,0.93 1.48,1.11 1.34,1.29 1.17,1.43 0.99,1.57 0.99,1.57 L 0.99,1.57 Z"></path></g><g transform="translate(58.46297213421167 28.92263554047304) rotate(0 -13.035593372325934 17.818815133945463)" stroke="none"><path fill="#1e1e1e" d="M 2.00,-1.50 Q 2.00,-1.50 2.96,-0.14 3.93,1.20 4.82,2.25 5.72,3.31 6.78,4.62 7.84,5.93 8.62,6.85 9.39,7.78 10.10,9.38 10.81,10.99 10.55,12.08 10.29,13.18 9.46,14.07 8.62,14.95 7.57,15.68 6.53,16.40 5.08,17.22 3.63,18.05 2.62,18.70 1.60,19.36 -1.13,20.79 -3.87,22.21 -6.77,23.54 -9.67,24.87 -12.37,26.03 -15.08,27.19 -16.67,27.96 -18.26,28.73 -20.97,29.82 -23.68,30.91 -25.10,31.61 -26.51,32.32 -28.09,33.21 -29.67,34.11 -31.49,35.65 -33.31,37.19 -33.59,37.37 -33.87,37.55 -34.20,37.63 -34.53,37.71 -34.87,37.68 -35.20,37.65 -35.51,37.52 -35.82,37.38 -36.07,37.15 -36.32,36.93 -36.48,36.63 -36.65,36.34 -36.71,36.01 -36.77,35.68 -36.72,35.34 -36.67,35.01 -36.52,34.71 -36.37,34.41 -36.13,34.17 -35.89,33.93 -35.59,33.79 -35.29,33.64 -34.95,33.60 -34.62,33.55 -34.29,33.62 -33.96,33.68 -33.66,33.85 -33.37,34.02 -33.15,34.27 -32.93,34.52 -32.79,34.83 -32.66,35.14 -32.64,35.48 -32.61,35.81 -32.70,36.14 -32.78,36.47 -32.96,36.75 -33.15,37.03 -33.41,37.24 -33.67,37.45 -33.99,37.57 -34.31,37.68 -34.64,37.69 -34.98,37.69 -35.30,37.59 -35.62,37.49 -35.90,37.29 -36.17,37.10 -36.36,36.82 -36.56,36.55 -36.65,36.22 -36.75,35.90 -36.74,35.56 -36.73,35.23 -36.61,34.91 -36.49,34.60 -36.28,34.34 -36.07,34.07 -36.07,34.07 -36.07,34.07 -33.77,32.53 -31.47,30.99 -29.75,29.99 -28.04,28.99 -26.54,28.36 -25.05,27.73 -22.47,26.54 -19.89,25.34 -18.28,24.57 -16.67,23.81 -14.11,22.50 -11.55,21.19 -8.90,19.69 -6.25,18.19 -3.76,16.51 -1.27,14.84 -0.22,14.17 0.83,13.51 2.13,12.64 3.42,11.77 4.48,11.27 5.54,10.76 4.90,9.86 4.26,8.97 3.14,7.70 2.01,6.44 1.03,5.27 0.05,4.11 -0.97,2.80 -2.00,1.50 -2.15,1.24 -2.30,0.97 -2.38,0.68 -2.47,0.39 -2.48,0.09 -2.49,-0.20 -2.43,-0.49 -2.37,-0.79 -2.24,-1.06 -2.11,-1.34 -1.92,-1.57 -1.73,-1.80 -1.49,-1.98 -1.25,-2.17 -0.97,-2.28 -0.69,-2.40 -0.39,-2.45 -0.09,-2.50 0.20,-2.47 0.50,-2.45 0.78,-2.35 1.07,-2.26 1.33,-2.10 1.58,-1.93 1.79,-1.72 2.00,-1.50 2.00,-1.50 L 2.00,-1.50 Z"></path></g><g transform="translate(34.70455195561772 29.343138552483538) rotate(0 4.520407379112953 7.621617092690542)" stroke="none"><path fill="#1e1e1e" d="M 1.99,-1.15 Q 1.99,-1.15 2.86,0.44 3.72,2.04 4.35,2.95 4.97,3.87 6.03,5.90 7.09,7.94 7.93,9.34 8.76,10.74 9.54,12.30 10.32,13.86 10.42,14.09 10.52,14.32 10.57,14.57 10.61,14.82 10.59,15.07 10.57,15.33 10.49,15.57 10.42,15.81 10.28,16.02 10.15,16.24 9.97,16.42 9.79,16.59 9.57,16.72 9.35,16.85 9.11,16.92 8.86,16.99 8.61,17.01 8.36,17.02 8.11,16.97 7.86,16.92 7.63,16.81 7.40,16.71 7.20,16.55 7.01,16.39 6.85,16.19 6.70,15.99 6.82,16.15 6.93,16.31 6.75,16.03 6.57,15.74 6.49,15.41 6.41,15.08 6.44,14.74 6.47,14.40 6.61,14.09 6.75,13.78 6.98,13.52 7.21,13.27 7.50,13.11 7.80,12.94 8.14,12.88 8.47,12.82 8.81,12.87 9.14,12.92 9.45,13.07 9.75,13.23 9.99,13.47 10.23,13.71 10.38,14.02 10.52,14.32 10.57,14.66 10.61,15.00 10.54,15.33 10.48,15.66 10.31,15.96 10.14,16.25 9.88,16.48 9.63,16.70 9.31,16.84 9.00,16.97 8.66,16.99 8.32,17.02 7.99,16.93 7.66,16.85 7.38,16.66 7.09,16.48 6.88,16.21 6.67,15.94 6.56,15.62 6.44,15.30 6.44,14.96 6.43,14.62 6.53,14.30 6.64,13.97 6.84,13.70 7.04,13.42 7.31,13.23 7.59,13.03 7.92,12.93 8.24,12.84 8.58,12.85 8.92,12.86 9.24,12.98 9.56,13.10 9.94,13.48 10.32,13.86 10.42,14.09 10.52,14.32 10.57,14.57 10.61,14.82 10.59,15.07 10.57,15.33 10.49,15.57 10.42,15.81 10.28,16.02 10.15,16.24 9.97,16.42 9.79,16.59 9.57,16.72 9.35,16.85 9.11,16.92 8.86,16.99 8.61,17.01 8.36,17.02 8.11,16.97 7.86,16.92 7.63,16.81 7.40,16.71 7.20,16.55 7.01,16.39 6.85,16.19 6.70,15.99 5.94,14.42 5.19,12.85 4.37,11.44 3.56,10.03 2.30,8.16 1.03,6.29 0.47,5.27 -0.09,4.24 -1.04,2.69 -1.99,1.15 -2.10,0.89 -2.21,0.64 -2.26,0.36 -2.30,0.09 -2.28,-0.18 -2.26,-0.46 -2.17,-0.72 -2.08,-0.99 -1.93,-1.22 -1.78,-1.46 -1.58,-1.65 -1.38,-1.84 -1.14,-1.98 -0.90,-2.12 -0.63,-2.20 -0.36,-2.27 -0.09,-2.28 0.18,-2.30 0.45,-2.24 0.73,-2.18 0.98,-2.06 1.23,-1.95 1.44,-1.77 1.66,-1.59 1.83,-1.37 1.99,-1.15 1.99,-1.15 L 1.99,-1.15 Z"></path></g><g transform="translate(24.50735391436274 13.469149849086762) rotate(0 2.8909582075723392 3.9422157375985307)" stroke="none"><path fill="#1e1e1e" d="M 2.52,-0.75 Q 2.52,-0.75 2.82,0.13 3.12,1.02 3.77,1.90 4.43,2.78 6.18,4.34 7.93,5.90 8.19,6.30 8.45,6.69 8.57,7.15 8.69,7.61 8.66,8.08 8.63,8.56 8.44,8.99 8.26,9.43 7.95,9.79 7.64,10.14 7.23,10.38 6.82,10.62 6.35,10.71 5.89,10.81 5.42,10.75 4.95,10.69 4.52,10.48 4.09,10.28 3.76,9.94 3.42,9.61 3.20,9.19 2.99,8.77 2.92,8.30 2.85,7.83 2.93,7.37 3.02,6.90 3.25,6.48 3.48,6.07 3.82,5.75 4.17,5.43 4.61,5.24 5.04,5.05 5.51,5.00 5.98,4.96 6.44,5.07 6.91,5.18 7.31,5.43 7.71,5.68 8.01,6.05 8.31,6.41 8.48,6.85 8.65,7.30 8.66,7.77 8.68,8.24 8.55,8.70 8.41,9.15 8.14,9.54 7.87,9.93 7.49,10.21 7.11,10.49 6.65,10.63 6.20,10.78 5.73,10.77 5.26,10.76 4.81,10.60 4.36,10.44 3.99,10.15 3.62,9.86 3.62,9.86 3.62,9.86 2.33,8.64 1.04,7.43 0.04,6.08 -0.95,4.74 -1.49,3.67 -2.03,2.60 -2.27,1.68 -2.52,0.75 -2.57,0.44 -2.62,0.13 -2.60,-0.18 -2.58,-0.50 -2.48,-0.80 -2.38,-1.10 -2.22,-1.37 -2.05,-1.64 -1.82,-1.86 -1.60,-2.08 -1.32,-2.24 -1.05,-2.41 -0.75,-2.50 -0.44,-2.59 -0.12,-2.60 0.18,-2.62 0.49,-2.56 0.80,-2.50 1.09,-2.37 1.38,-2.23 1.63,-2.03 1.88,-1.84 2.07,-1.58 2.26,-1.33 2.39,-1.04 2.52,-0.75 2.52,-0.75 L 2.52,-0.75 Z"></path></g><g transform="translate(45.42737876188585 49.52728312898819) rotate(0 2.4178923190603427 4.625533132115606)" stroke="none"><path fill="#1e1e1e" d="M 2.10,-1.03 Q 2.10,-1.03 2.89,0.79 3.68,2.61 4.34,3.78 5.00,4.94 5.93,6.54 6.86,8.14 6.99,8.49 7.11,8.84 7.12,9.22 7.12,9.59 7.01,9.95 6.89,10.31 6.67,10.61 6.44,10.91 6.14,11.12 5.83,11.34 5.47,11.44 5.11,11.55 4.73,11.53 4.36,11.52 4.01,11.38 3.66,11.25 3.37,11.01 3.08,10.77 2.89,10.45 2.69,10.13 2.60,9.76 2.52,9.40 2.55,9.03 2.59,8.65 2.74,8.31 2.90,7.97 3.15,7.69 3.41,7.42 3.74,7.24 4.06,7.06 4.43,6.99 4.80,6.93 5.17,6.99 5.54,7.04 5.88,7.21 6.21,7.38 6.47,7.65 6.73,7.92 6.89,8.26 7.06,8.60 7.10,8.97 7.15,9.34 7.07,9.71 6.99,10.08 6.80,10.40 6.61,10.73 6.33,10.97 6.05,11.22 5.70,11.36 5.36,11.50 4.98,11.53 4.61,11.55 4.25,11.46 3.88,11.36 3.57,11.15 3.26,10.95 3.03,10.65 2.80,10.36 2.80,10.36 2.80,10.36 1.93,8.69 1.07,7.03 0.45,5.77 -0.17,4.51 -1.13,2.77 -2.10,1.03 -2.19,0.76 -2.28,0.50 -2.31,0.21 -2.34,-0.06 -2.29,-0.34 -2.25,-0.62 -2.15,-0.88 -2.04,-1.14 -1.87,-1.37 -1.71,-1.59 -1.49,-1.78 -1.27,-1.96 -1.02,-2.08 -0.77,-2.21 -0.49,-2.27 -0.22,-2.33 0.06,-2.32 0.34,-2.31 0.61,-2.24 0.88,-2.16 1.13,-2.02 1.38,-1.89 1.58,-1.69 1.79,-1.50 1.94,-1.26 2.10,-1.03 2.10,-1.03 L 2.10,-1.03 Z"></path></g></svg>