<?xml version="1.0" standalone="no"?>
<!DOCTYPE svg PUBLIC "-//W3C//DTD SVG 1.1//EN" "http://www.w3.org/Graphics/SVG/1.1/DTD/svg11.dtd">
<svg version="1.1" xmlns="http://www.w3.org/2000/svg" viewBox="0 0 45.52025814944909 87.29162408274533" width="91.04051629889818" height="174.58324816549066"><!-- svg-source:excalidraw --><metadata></metadata><defs><style class="style-fonts">
      </style></defs><g transform="translate(19.269150365601945 10) rotate(0 6.801389553980471 5.597603792214045)" stroke="none"><path fill="#1e1e1e" d="M 1.41,-1.69 Q 1.41,-1.69 3.24,-0.00 5.07,1.67 6.85,3.24 8.63,4.80 9.94,5.79 11.25,6.77 13.06,8.21 14.87,9.65 15.08,9.89 15.30,10.13 15.42,10.43 15.55,10.73 15.57,11.05 15.59,11.38 15.51,11.69 15.43,12.00 15.25,12.27 15.07,12.54 14.82,12.74 14.56,12.94 14.26,13.05 13.95,13.16 13.63,13.16 13.30,13.17 13.00,13.07 12.69,12.97 12.43,12.78 12.17,12.59 11.98,12.32 11.79,12.06 11.70,11.75 11.61,11.44 11.62,11.11 11.64,10.79 11.75,10.49 11.87,10.18 12.07,9.93 12.28,9.68 12.55,9.51 12.83,9.34 13.14,9.27 13.46,9.19 13.78,9.22 14.10,9.25 14.40,9.39 14.70,9.52 14.93,9.74 15.17,9.96 15.33,10.24 15.48,10.52 15.54,10.84 15.60,11.16 15.55,11.48 15.50,11.80 15.36,12.09 15.21,12.38 14.98,12.60 14.75,12.83 14.45,12.97 14.16,13.11 13.84,13.15 13.52,13.19 13.20,13.12 12.88,13.06 12.60,12.90 12.32,12.73 12.33,12.73 12.33,12.73 10.64,11.22 8.95,9.70 7.66,8.64 6.36,7.58 4.45,6.14 2.54,4.69 0.56,3.19 -1.41,1.69 -1.59,1.49 -1.77,1.30 -1.90,1.07 -2.03,0.84 -2.11,0.58 -2.18,0.32 -2.18,0.06 -2.19,-0.20 -2.14,-0.46 -2.08,-0.72 -1.96,-0.96 -1.85,-1.20 -1.67,-1.40 -1.50,-1.60 -1.29,-1.76 -1.08,-1.92 -0.83,-2.02 -0.58,-2.12 -0.32,-2.16 -0.06,-2.20 0.20,-2.18 0.46,-2.15 0.71,-2.06 0.96,-1.98 1.19,-1.83 1.41,-1.69 1.41,-1.69 L 1.41,-1.69 Z"></path></g><g transform="translate(10 44.067137057990976) rotate(0 12.338804058106348 0.6018928808832698)" stroke="none"><path fill="#1e1e1e" d="M 0.11,-2.01 Q 0.11,-2.01 2.49,-1.78 4.88,-1.55 7.49,-1.28 10.11,-1.01 12.76,-0.81 15.41,-0.60 17.70,-0.47 20.00,-0.33 22.19,-0.32 24.37,-0.32 24.63,-0.26 24.90,-0.21 25.13,-0.08 25.36,0.05 25.53,0.25 25.71,0.45 25.81,0.69 25.91,0.94 25.93,1.20 25.95,1.47 25.88,1.73 25.82,1.99 25.67,2.21 25.52,2.43 25.32,2.60 25.11,2.76 24.85,2.85 24.60,2.94 24.34,2.94 24.07,2.95 23.82,2.87 23.56,2.79 23.35,2.63 23.14,2.47 22.98,2.25 22.83,2.03 22.75,1.78 22.68,1.52 22.69,1.26 22.70,0.99 22.79,0.74 22.89,0.49 23.06,0.29 23.23,0.08 23.45,-0.05 23.68,-0.19 23.94,-0.25 24.20,-0.31 24.46,-0.29 24.73,-0.26 24.97,-0.16 25.21,-0.05 25.41,0.12 25.61,0.30 25.73,0.54 25.86,0.77 25.91,1.03 25.96,1.29 25.92,1.56 25.88,1.82 25.76,2.06 25.64,2.29 25.45,2.48 25.26,2.67 25.02,2.78 24.78,2.90 24.51,2.93 24.25,2.96 24.25,2.96 24.25,2.96 22.06,2.82 19.87,2.68 17.55,2.62 15.22,2.56 12.54,2.46 9.86,2.35 7.26,2.23 4.67,2.10 2.27,2.05 -0.11,2.01 -0.35,1.97 -0.59,1.92 -0.81,1.82 -1.03,1.72 -1.23,1.58 -1.42,1.43 -1.57,1.23 -1.72,1.04 -1.82,0.82 -1.92,0.60 -1.97,0.36 -2.01,0.12 -2.00,-0.11 -1.98,-0.35 -1.91,-0.59 -1.84,-0.82 -1.71,-1.03 -1.59,-1.24 -1.42,-1.41 -1.24,-1.58 -1.04,-1.71 -0.83,-1.83 -0.60,-1.91 -0.36,-1.98 -0.12,-1.99 0.11,-2.01 0.11,-2.01 L 0.11,-2.01 Z"></path></g><g transform="translate(22.639750498547983 77.29162408274533) rotate(0 6.440253825450554 -6.861578842068866)" stroke="none"><path fill="#1e1e1e" d="M -1.52,-1.72 Q -1.52,-1.72 0.02,-2.97 1.57,-4.21 2.88,-5.44 4.20,-6.66 5.26,-7.88 6.32,-9.09 7.23,-10.25 8.15,-11.41 9.65,-13.28 11.16,-15.15 11.44,-15.38 11.71,-15.62 12.04,-15.76 12.38,-15.89 12.74,-15.92 13.10,-15.94 13.45,-15.84 13.80,-15.75 14.10,-15.55 14.40,-15.35 14.62,-15.06 14.84,-14.78 14.96,-14.44 15.07,-14.10 15.08,-13.74 15.08,-13.37 14.97,-13.03 14.86,-12.69 14.64,-12.40 14.42,-12.11 14.13,-11.91 13.83,-11.70 13.48,-11.60 13.13,-11.50 12.77,-11.52 12.41,-11.54 12.08,-11.67 11.74,-11.80 11.46,-12.03 11.19,-12.26 11.00,-12.57 10.81,-12.88 10.73,-13.23 10.65,-13.58 10.68,-13.94 10.72,-14.30 10.87,-14.63 11.02,-14.96 11.27,-15.22 11.51,-15.48 11.83,-15.66 12.15,-15.83 12.50,-15.89 12.86,-15.95 13.21,-15.89 13.57,-15.84 13.89,-15.67 14.21,-15.50 14.46,-15.24 14.71,-14.98 14.87,-14.66 15.02,-14.33 15.06,-13.97 15.10,-13.61 15.03,-13.26 14.95,-12.91 14.77,-12.60 14.59,-12.29 14.59,-12.29 14.59,-12.29 12.99,-10.51 11.40,-8.73 10.40,-7.56 9.39,-6.39 8.22,-5.06 7.04,-3.73 5.71,-2.38 4.37,-1.04 2.95,0.34 1.52,1.72 1.29,1.88 1.06,2.03 0.80,2.13 0.54,2.23 0.27,2.26 -0.00,2.30 -0.27,2.26 -0.55,2.23 -0.81,2.13 -1.07,2.03 -1.29,1.87 -1.52,1.72 -1.71,1.51 -1.89,1.30 -2.02,1.05 -2.15,0.81 -2.21,0.54 -2.28,0.27 -2.28,-0.00 -2.28,-0.28 -2.21,-0.54 -2.15,-0.81 -2.02,-1.06 -1.89,-1.30 -1.70,-1.51 -1.52,-1.72 -1.52,-1.72 L -1.52,-1.72 Z"></path></g></svg>