<?xml version="1.0" standalone="no"?>
<!DOCTYPE svg PUBLIC "-//W3C//DTD SVG 1.1//EN" "http://www.w3.org/Graphics/SVG/1.1/DTD/svg11.dtd">
<svg version="1.1" xmlns="http://www.w3.org/2000/svg" viewBox="0 0 43.46261912348291 88.07056165454901" width="86.92523824696582" height="176.14112330909802"><!-- svg-source:excalidraw --><metadata></metadata><defs><style class="style-fonts">
      </style></defs><g transform="translate(29.407351620658574 19.558844828085512) rotate(0 -6.227732236480051 -4.779422414042756)" stroke="none"><path fill="#1e1e1e" d="M -1.36,2.11 Q -1.36,2.11 -2.52,1.36 -3.69,0.62 -4.85,-0.10 -6.00,-0.83 -7.25,-1.80 -8.50,-2.77 -9.53,-3.57 -10.55,-4.37 -12.43,-6.05 -14.31,-7.73 -14.55,-8.07 -14.80,-8.42 -14.92,-8.82 -15.04,-9.23 -15.02,-9.65 -15.01,-10.07 -14.86,-10.46 -14.71,-10.86 -14.44,-11.18 -14.17,-11.51 -13.82,-11.73 -13.46,-11.96 -13.05,-12.06 -12.64,-12.15 -12.22,-12.12 -11.80,-12.08 -11.41,-11.91 -11.03,-11.74 -10.71,-11.45 -10.40,-11.17 -10.20,-10.80 -10.00,-10.43 -9.92,-10.02 -9.84,-9.60 -9.90,-9.18 -9.97,-8.77 -10.16,-8.39 -10.35,-8.01 -10.65,-7.72 -10.95,-7.42 -11.33,-7.24 -11.71,-7.05 -12.13,-7.00 -12.55,-6.95 -12.96,-7.03 -13.37,-7.12 -13.74,-7.33 -14.10,-7.54 -14.38,-7.85 -14.66,-8.17 -14.82,-8.56 -14.99,-8.95 -15.02,-9.37 -15.05,-9.79 -14.94,-10.20 -14.84,-10.61 -14.61,-10.96 -14.37,-11.31 -14.04,-11.57 -13.71,-11.84 -13.32,-11.98 -12.92,-12.12 -12.50,-12.13 -12.07,-12.13 -11.67,-12.01 -11.27,-11.88 -10.93,-11.63 -10.59,-11.38 -10.59,-11.38 -10.59,-11.38 -8.98,-9.86 -7.36,-8.33 -6.40,-7.54 -5.44,-6.74 -4.37,-5.92 -3.30,-5.10 -2.13,-4.36 -0.96,-3.61 0.19,-2.86 1.36,-2.11 1.59,-1.92 1.82,-1.72 2.00,-1.48 2.18,-1.24 2.30,-0.96 2.42,-0.68 2.46,-0.38 2.51,-0.08 2.48,0.21 2.46,0.52 2.36,0.80 2.26,1.09 2.10,1.35 1.93,1.60 1.71,1.81 1.49,2.02 1.23,2.17 0.96,2.32 0.67,2.40 0.38,2.48 0.08,2.49 -0.22,2.50 -0.51,2.44 -0.81,2.38 -1.08,2.24 -1.36,2.11 -1.36,2.11 L -1.36,2.11 Z"></path></g><g transform="translate(27.959041798221506 44.469773774005716) rotate(0 -8.979520899110753 -0.2896619644874363)" stroke="none"><path fill="#1e1e1e" d="M 0,2.31 Q 0,2.31 -2.33,2.18 -4.66,2.05 -6.73,1.96 -8.81,1.88 -10.44,1.91 -12.07,1.94 -13.33,1.84 -14.60,1.74 -16.30,1.65 -18.01,1.56 -18.35,1.50 -18.69,1.43 -19.00,1.26 -19.30,1.09 -19.53,0.83 -19.76,0.57 -19.90,0.25 -20.04,-0.06 -20.06,-0.40 -20.09,-0.75 -20.01,-1.08 -19.93,-1.42 -19.74,-1.71 -19.55,-2.01 -19.28,-2.22 -19.01,-2.44 -18.69,-2.56 -18.36,-2.68 -18.01,-2.69 -17.67,-2.70 -17.33,-2.60 -17.00,-2.50 -16.72,-2.29 -16.44,-2.09 -16.23,-1.81 -16.03,-1.53 -15.93,-1.20 -15.83,-0.86 -15.84,-0.52 -15.85,-0.17 -15.97,0.15 -16.09,0.47 -16.30,0.74 -16.52,1.01 -16.81,1.20 -17.11,1.39 -17.44,1.47 -17.78,1.55 -18.13,1.53 -18.47,1.50 -18.79,1.36 -19.11,1.22 -19.37,0.99 -19.63,0.76 -19.80,0.46 -19.97,0.16 -20.03,-0.17 -20.10,-0.52 -20.05,-0.86 -20.01,-1.20 -19.85,-1.51 -19.70,-1.83 -19.45,-2.07 -19.21,-2.32 -18.90,-2.47 -18.58,-2.63 -18.24,-2.67 -17.90,-2.72 -17.90,-2.72 -17.90,-2.72 -14.98,-2.33 -12.06,-1.94 -10.43,-1.91 -8.81,-1.88 -6.73,-1.96 -4.66,-2.05 -2.33,-2.18 0,-2.31 0.27,-2.28 0.55,-2.24 0.81,-2.14 1.07,-2.05 1.30,-1.89 1.53,-1.73 1.72,-1.52 1.90,-1.31 2.03,-1.06 2.16,-0.82 2.23,-0.55 2.29,-0.27 2.29,0.00 2.29,0.27 2.23,0.55 2.16,0.82 2.03,1.06 1.90,1.31 1.72,1.52 1.53,1.73 1.30,1.89 1.07,2.05 0.81,2.14 0.55,2.24 0.27,2.28 -0.00,2.31 -0.00,2.31 L 0,2.31 Z"></path></g><g transform="translate(33.46261912348291 63.87712539466452) rotate(0 -6.6622251832112624 7.096718129942246)" stroke="none"><path fill="#1e1e1e" d="M 1.78,1.93 Q 1.78,1.93 0.68,2.91 -0.41,3.89 -1.16,4.66 -1.92,5.42 -3.06,6.64 -4.20,7.86 -5.16,8.90 -6.13,9.95 -7.37,11.41 -8.61,12.88 -9.55,14.35 -10.49,15.82 -10.76,16.06 -11.02,16.30 -11.33,16.47 -11.64,16.64 -11.99,16.73 -12.33,16.82 -12.69,16.83 -13.04,16.84 -13.39,16.76 -13.74,16.68 -14.05,16.52 -14.37,16.36 -14.64,16.13 -14.91,15.90 -15.12,15.61 -15.33,15.32 -15.46,14.99 -15.59,14.66 -15.64,14.31 -15.69,13.95 -15.66,13.60 -15.62,13.25 -15.50,12.91 -15.38,12.58 -15.18,12.28 -14.99,11.98 -14.96,11.95 -14.93,11.92 -14.55,11.62 -14.18,11.32 -13.73,11.16 -13.28,11.00 -12.80,10.99 -12.33,10.98 -11.87,11.12 -11.42,11.26 -11.03,11.54 -10.64,11.82 -10.37,12.21 -10.09,12.60 -9.95,13.06 -9.81,13.52 -9.83,13.99 -9.84,14.47 -10.01,14.92 -10.18,15.36 -10.48,15.74 -10.78,16.11 -11.18,16.36 -11.59,16.62 -12.05,16.73 -12.52,16.84 -12.99,16.80 -13.47,16.76 -13.91,16.57 -14.34,16.38 -14.70,16.06 -15.05,15.74 -15.28,15.32 -15.52,14.90 -15.60,14.43 -15.69,13.96 -15.62,13.49 -15.56,13.02 -15.34,12.59 -15.13,12.16 -14.79,11.83 -14.45,11.49 -14.02,11.28 -13.59,11.07 -13.12,11.01 -12.64,10.95 -12.18,11.04 -11.71,11.13 -11.29,11.37 -10.88,11.61 -10.56,11.96 -10.24,12.32 -10.06,12.76 -9.87,13.20 -9.84,13.68 -9.80,14.15 -9.92,14.62 -10.03,15.08 -10.26,15.45 -10.49,15.81 -10.76,16.06 -11.02,16.30 -11.33,16.47 -11.64,16.64 -11.99,16.73 -12.33,16.82 -12.69,16.83 -13.04,16.84 -13.39,16.76 -13.74,16.68 -14.05,16.52 -14.37,16.36 -14.64,16.13 -14.91,15.90 -15.12,15.61 -15.33,15.32 -15.46,14.99 -15.59,14.66 -15.64,14.31 -15.69,13.95 -15.66,13.60 -15.62,13.25 -15.50,12.91 -15.38,12.58 -15.18,12.28 -14.99,11.98 -14.04,10.52 -13.09,9.05 -11.66,7.45 -10.24,5.84 -9.17,4.87 -8.11,3.90 -6.84,2.75 -5.57,1.60 -4.74,0.85 -3.91,0.09 -2.85,-0.91 -1.78,-1.93 -1.52,-2.11 -1.26,-2.30 -0.97,-2.41 -0.68,-2.53 -0.36,-2.58 -0.05,-2.62 0.26,-2.59 0.57,-2.56 0.87,-2.45 1.17,-2.35 1.43,-2.17 1.70,-2.00 1.91,-1.76 2.13,-1.53 2.28,-1.25 2.43,-0.98 2.51,-0.67 2.60,-0.36 2.60,-0.05 2.61,0.26 2.54,0.57 2.47,0.88 2.33,1.16 2.19,1.44 1.98,1.68 1.78,1.93 1.78,1.93 L 1.78,1.93 Z"></path></g></svg>