<?xml version="1.0" standalone="no"?>
<!DOCTYPE svg PUBLIC "-//W3C//DTD SVG 1.1//EN" "http://www.w3.org/Graphics/SVG/1.1/DTD/svg11.dtd">
<svg version="1.1" xmlns="http://www.w3.org/2000/svg" viewBox="0 0 62.41282951739049 48.81379529117953" width="124.82565903478098" height="97.62759058235906"><!-- svg-source:excalidraw --><metadata></metadata><defs><style class="style-fonts">
      </style></defs><g transform="translate(18.347922000248445 36.928780645962206) rotate(0 12.8584927584468 -12.52188300037244)" stroke="none"><path fill="#1e1e1e" d="M -1.61,-1.11 Q -1.61,-1.11 -0.26,-2.91 1.08,-4.72 2.69,-6.85 4.30,-8.97 6.16,-11.51 8.01,-14.06 10.01,-16.80 12.02,-19.54 13.71,-21.69 15.39,-23.84 16.37,-25.08 17.35,-26.32 17.78,-26.75 18.22,-27.18 18.38,-27.32 18.55,-27.47 18.74,-27.57 18.93,-27.67 19.15,-27.72 19.36,-27.77 19.58,-27.77 19.79,-27.77 20.01,-27.72 20.22,-27.67 20.41,-27.57 20.61,-27.47 20.77,-27.32 20.93,-27.18 21.06,-27.00 21.18,-26.82 21.26,-26.61 21.34,-26.41 21.36,-26.19 21.39,-25.97 21.36,-25.76 21.34,-25.54 21.26,-25.34 21.18,-25.13 21.06,-24.95 20.93,-24.77 22.30,-23.07 23.67,-21.38 24.21,-18.98 24.74,-16.59 25.21,-14.43 25.68,-12.28 26.26,-10.37 26.84,-8.46 27.37,-7.13 27.90,-5.79 27.62,-3.58 27.33,-1.36 24.37,-1.25 21.41,-1.14 18.92,-1.75 16.44,-2.37 13.14,-3.21 9.85,-4.04 6.41,-5.09 2.97,-6.14 0.15,-7.28 -2.66,-8.42 -4.57,-9.58 -6.49,-10.74 -7.26,-12.75 -8.04,-14.76 -5.22,-15.81 -2.40,-16.86 0.88,-17.01 4.17,-17.15 7.76,-17.41 11.35,-17.68 14.93,-18.01 18.51,-18.34 21.96,-18.69 25.42,-19.05 27.69,-19.31 29.97,-19.57 31.30,-19.72 32.62,-19.87 33.59,-18.68 34.55,-17.49 34.32,-16.44 34.08,-15.39 32.95,-14.05 31.81,-12.71 29.92,-11.36 28.02,-10.01 25.44,-8.67 22.86,-7.32 19.52,-5.96 16.18,-4.59 12.97,-3.31 9.75,-2.02 7.15,-0.91 4.56,0.19 2.41,0.87 0.25,1.54 0.25,1.78 0.24,2.02 0.16,2.25 0.08,2.48 -0.06,2.66 -0.21,2.85 -0.42,2.98 -0.62,3.11 -0.85,3.17 -1.09,3.23 -1.33,3.21 -1.56,3.19 -1.79,3.09 -2.01,3.00 -2.19,2.84 -2.36,2.68 -2.48,2.47 -2.60,2.26 -2.65,2.02 -2.69,1.79 -2.66,1.55 -2.63,1.31 -2.52,1.09 -2.41,0.88 -2.24,0.71 -2.07,0.54 -1.86,0.43 -1.64,0.33 -1.41,0.29 -1.17,0.26 -0.93,0.31 -0.69,0.35 -0.49,0.47 -0.28,0.59 -0.12,0.77 0.03,0.95 0.13,1.17 0.22,1.39 0.24,1.63 0.26,1.87 0.21,2.10 0.15,2.33 0.02,2.53 -0.10,2.74 -0.29,2.89 -0.48,3.04 -0.70,3.12 -0.93,3.20 -1.17,3.21 -1.41,3.22 -1.64,3.15 -1.87,3.08 -2.06,2.94 -2.26,2.80 -2.40,2.60 -2.54,2.41 -2.61,2.18 -2.68,1.95 -2.68,1.95 -2.68,1.95 0.34,-0.27 3.38,-2.49 5.98,-3.67 8.58,-4.84 11.75,-6.20 14.92,-7.55 18.06,-8.95 21.20,-10.34 23.48,-11.66 25.75,-12.98 28.04,-14.86 30.32,-16.75 28.03,-16.44 25.74,-16.14 22.28,-15.72 18.82,-15.30 15.23,-14.90 11.64,-14.49 8.02,-14.11 4.39,-13.74 1.29,-13.47 -1.81,-13.20 -3.35,-13.23 -4.89,-13.26 -3.22,-12.28 -1.54,-11.29 1.16,-10.28 3.87,-9.27 7.25,-8.36 10.63,-7.44 13.92,-6.77 17.20,-6.10 19.63,-5.71 22.05,-5.32 23.33,-5.02 24.61,-4.72 24.24,-6.13 23.87,-7.54 23.24,-9.54 22.60,-11.53 22.04,-13.65 21.48,-15.77 20.86,-17.96 20.24,-20.15 19.70,-21.71 19.17,-23.27 18.69,-25.22 18.22,-27.18 18.38,-27.32 18.55,-27.47 18.74,-27.57 18.93,-27.67 19.15,-27.72 19.36,-27.77 19.58,-27.77 19.79,-27.77 20.01,-27.72 20.22,-27.67 20.41,-27.57 20.61,-27.47 20.77,-27.32 20.93,-27.18 21.06,-27.00 21.18,-26.82 21.26,-26.61 21.34,-26.41 21.36,-26.19 21.39,-25.97 21.36,-25.76 21.34,-25.54 21.26,-25.34 21.18,-25.13 21.06,-24.95 20.93,-24.77 20.35,-24.46 19.77,-24.15 18.73,-23.11 17.68,-22.07 16.07,-19.93 14.45,-17.80 12.51,-15.02 10.57,-12.25 8.78,-9.64 6.99,-7.03 5.51,-4.86 4.02,-2.70 2.82,-0.79 1.61,1.11 1.45,1.28 1.30,1.46 1.10,1.59 0.91,1.73 0.69,1.81 0.47,1.90 0.23,1.93 0.00,1.95 -0.23,1.93 -0.46,1.90 -0.68,1.82 -0.90,1.73 -1.10,1.60 -1.29,1.46 -1.45,1.29 -1.61,1.11 -1.72,0.90 -1.83,0.69 -1.88,0.46 -1.94,0.23 -1.94,0.00 -1.94,-0.23 -1.88,-0.46 -1.83,-0.69 -1.72,-0.90 -1.61,-1.11 -1.61,-1.11 L -1.61,-1.11 Z"></path></g></svg>