<?xml version="1.0" standalone="no"?>
<!DOCTYPE svg PUBLIC "-//W3C//DTD SVG 1.1//EN" "http://www.w3.org/Graphics/SVG/1.1/DTD/svg11.dtd">
<svg version="1.1" xmlns="http://www.w3.org/2000/svg" viewBox="0 0 52.17989287192495 49.48701480732859" width="104.3597857438499" height="98.97402961465718"><!-- svg-source:excalidraw --><metadata></metadata><defs><style class="style-fonts">
      </style></defs><g transform="translate(16.058975645341434 36.928780645962206) rotate(0 10.03097079062104 -12.18527324229791)" stroke="none"><path fill="#1e1e1e" d="M -1.95,-0.68 Q -1.95,-0.68 -1.36,-2.34 -0.76,-4.00 0.16,-6.07 1.10,-8.14 2.51,-10.83 3.92,-13.52 5.49,-16.07 7.05,-18.62 8.26,-20.63 9.46,-22.65 10.06,-24.02 10.66,-25.39 11.08,-26.40 11.51,-27.40 11.65,-27.59 11.79,-27.78 11.97,-27.94 12.15,-28.09 12.37,-28.19 12.58,-28.30 12.81,-28.35 13.05,-28.40 13.28,-28.39 13.52,-28.38 13.75,-28.32 13.98,-28.26 14.19,-28.14 14.40,-28.02 14.57,-27.86 14.74,-27.70 14.87,-27.50 15.00,-27.30 15.08,-27.07 15.16,-26.85 15.18,-26.61 15.20,-26.37 15.16,-26.14 15.13,-25.90 15.04,-25.68 14.94,-25.46 15.85,-23.59 16.76,-21.71 17.32,-19.04 17.87,-16.38 18.40,-13.61 18.92,-10.84 19.46,-8.66 20.00,-6.49 20.54,-4.98 21.08,-3.47 20.30,-1.28 19.52,0.89 18.19,0.75 16.87,0.61 15.07,-0.17 13.28,-0.95 10.93,-2.18 8.59,-3.40 6.11,-4.81 3.64,-6.22 1.49,-7.63 -0.66,-9.05 -1.98,-9.95 -3.31,-10.85 -3.75,-12.85 -4.20,-14.84 -1.22,-15.77 1.76,-16.70 4.89,-16.83 8.03,-16.95 11.14,-17.13 14.25,-17.31 16.99,-17.41 19.73,-17.50 21.52,-17.53 23.30,-17.57 24.84,-16.86 26.38,-16.16 25.87,-13.94 25.36,-11.73 23.75,-10.62 22.15,-9.51 19.81,-8.35 17.48,-7.20 14.64,-5.97 11.80,-4.74 8.86,-3.47 5.91,-2.20 3.49,-1.04 1.06,0.12 -0.48,0.98 -2.02,1.83 -3.50,2.89 -4.98,3.95 -5.23,4.08 -5.48,4.22 -5.76,4.27 -6.04,4.32 -6.32,4.27 -6.60,4.23 -6.86,4.10 -7.11,3.97 -7.31,3.76 -7.51,3.55 -7.63,3.30 -7.75,3.04 -7.78,2.75 -7.82,2.47 -7.76,2.19 -7.70,1.91 -7.55,1.67 -7.41,1.42 -7.19,1.24 -6.97,1.05 -6.71,0.94 -6.45,0.83 -6.16,0.82 -5.88,0.80 -5.60,0.87 -5.33,0.95 -5.09,1.11 -4.85,1.26 -4.68,1.49 -4.50,1.72 -4.41,1.98 -4.32,2.25 -4.31,2.54 -4.31,2.83 -4.40,3.10 -4.49,3.37 -4.66,3.60 -4.83,3.82 -5.07,3.99 -5.30,4.15 -5.58,4.23 -5.85,4.31 -6.14,4.29 -6.42,4.28 -6.69,4.18 -6.95,4.07 -7.17,3.89 -7.39,3.71 -7.54,3.46 -7.69,3.22 -7.75,2.94 -7.81,2.66 -7.79,2.38 -7.76,2.09 -7.64,1.83 -7.52,1.57 -7.33,1.37 -7.13,1.16 -7.13,1.16 -7.13,1.16 -5.33,0.05 -3.54,-1.05 -1.93,-1.84 -0.32,-2.64 2.12,-3.91 4.57,-5.18 7.44,-6.55 10.32,-7.92 12.99,-9.25 15.65,-10.57 17.69,-11.80 19.73,-13.02 21.50,-13.64 23.26,-14.25 21.57,-14.32 19.89,-14.38 17.20,-14.20 14.50,-14.01 11.38,-13.71 8.26,-13.40 5.30,-13.12 2.33,-12.84 0.58,-13.23 -1.17,-13.62 -0.06,-12.69 1.04,-11.76 3.15,-10.50 5.26,-9.24 7.72,-8.00 10.18,-6.75 12.53,-5.75 14.87,-4.74 16.37,-3.61 17.87,-2.47 17.45,-4.08 17.02,-5.69 16.37,-7.93 15.73,-10.17 15.10,-12.87 14.48,-15.57 13.79,-18.12 13.10,-20.67 12.53,-22.46 11.95,-24.26 11.73,-25.83 11.51,-27.40 11.65,-27.59 11.79,-27.78 11.97,-27.94 12.15,-28.09 12.37,-28.19 12.58,-28.30 12.81,-28.35 13.05,-28.40 13.28,-28.39 13.52,-28.38 13.75,-28.32 13.98,-28.26 14.19,-28.14 14.40,-28.02 14.57,-27.86 14.74,-27.70 14.87,-27.50 15.00,-27.30 15.08,-27.07 15.16,-26.85 15.18,-26.61 15.20,-26.37 15.16,-26.14 15.13,-25.90 15.04,-25.68 14.95,-25.46 14.31,-24.67 13.67,-23.87 12.88,-22.50 12.10,-21.13 10.95,-19.06 9.81,-17.00 8.39,-14.50 6.98,-12.00 5.75,-9.38 4.53,-6.76 3.81,-4.71 3.09,-2.65 2.52,-0.98 1.95,0.68 1.84,0.90 1.73,1.13 1.57,1.32 1.41,1.51 1.21,1.66 1.01,1.80 0.78,1.90 0.54,1.99 0.30,2.03 0.05,2.07 -0.19,2.04 -0.44,2.02 -0.67,1.94 -0.91,1.86 -1.12,1.72 -1.33,1.58 -1.50,1.40 -1.67,1.22 -1.79,1.00 -1.91,0.78 -1.98,0.54 -2.05,0.30 -2.05,0.05 -2.06,-0.19 -2.01,-0.43 -1.95,-0.68 -1.95,-0.68 L -1.95,-0.68 Z"></path></g></svg>