<?xml version="1.0" standalone="no"?>
<!DOCTYPE svg PUBLIC "-//W3C//DTD SVG 1.1//EN" "http://www.w3.org/Graphics/SVG/1.1/DTD/svg11.dtd">
<svg version="1.1" xmlns="http://www.w3.org/2000/svg" viewBox="0 0 56.75778558173829 46.12091722658329" width="113.51557116347658" height="92.24183445316658"><!-- svg-source:excalidraw --><metadata></metadata><defs><style class="style-fonts">
      </style></defs><g transform="translate(20.0982927422358 35.851629420123686) rotate(0 8.280600048633346 -12.791170806832042)" stroke="none"><path fill="#1e1e1e" d="M -1.96,-0.22 Q -1.96,-0.22 -1.78,-1.89 -1.59,-3.56 -0.89,-5.82 -0.19,-8.08 0.63,-10.41 1.46,-12.73 2.33,-15.21 3.20,-17.68 3.93,-19.77 4.67,-21.87 5.01,-23.22 5.35,-24.57 5.55,-24.82 5.75,-25.07 5.85,-25.27 5.94,-25.47 6.08,-25.64 6.22,-25.82 6.39,-25.95 6.57,-26.09 6.77,-26.18 6.98,-26.27 7.20,-26.30 7.41,-26.34 7.64,-26.33 7.86,-26.31 8.07,-26.24 8.28,-26.17 8.47,-26.06 8.66,-25.94 8.82,-25.78 8.97,-25.62 9.08,-25.43 9.20,-25.24 9.26,-25.03 9.33,-24.81 9.34,-24.59 9.35,-24.37 9.31,-24.15 9.26,-23.93 10.49,-21.80 11.71,-19.67 12.57,-17.02 13.43,-14.37 14.48,-11.87 15.53,-9.38 16.66,-7.57 17.78,-5.77 18.72,-4.89 19.66,-4.02 20.36,-3.64 21.06,-3.27 21.22,-3.09 21.38,-2.92 21.50,-2.71 21.61,-2.50 21.67,-2.27 21.73,-2.05 21.74,-1.81 21.74,-1.57 21.69,-1.34 21.64,-1.11 21.53,-0.90 21.42,-0.69 21.27,-0.51 21.12,-0.33 20.93,-0.19 20.73,-0.05 20.51,0.02 20.29,0.11 20.06,0.15 19.83,0.18 19.59,0.15 19.36,0.13 19.13,0.05 18.91,-0.02 18.71,-0.15 18.52,-0.28 17.23,-1.23 15.95,-2.19 14.40,-3.23 12.86,-4.28 10.71,-5.64 8.56,-7.01 5.85,-8.57 3.14,-10.14 0.30,-11.68 -2.53,-13.21 -4.69,-14.34 -6.86,-15.47 -8.14,-16.10 -9.42,-16.73 -9.50,-16.89 -9.58,-17.06 -9.76,-17.19 -9.94,-17.32 -10.08,-17.49 -10.22,-17.66 -10.32,-17.86 -10.42,-18.05 -10.47,-18.27 -10.52,-18.49 -10.51,-18.71 -10.51,-18.93 -10.45,-19.14 -10.39,-19.35 -10.28,-19.55 -10.18,-19.74 -10.03,-19.90 -9.88,-20.07 -9.69,-20.19 -9.51,-20.31 -9.30,-20.38 -9.09,-20.46 -8.87,-20.48 -8.65,-20.50 -8.43,-20.47 -8.21,-20.44 -8.01,-20.35 -7.80,-20.27 -4.08,-20.33 -0.35,-20.39 3.55,-20.42 7.46,-20.46 11.06,-20.73 14.67,-20.99 17.67,-21.29 20.68,-21.58 22.35,-21.82 24.01,-22.07 24.60,-22.16 25.18,-22.24 25.40,-22.24 25.62,-22.24 25.82,-22.18 26.03,-22.13 26.22,-22.03 26.41,-21.92 26.57,-21.78 26.73,-21.63 26.85,-21.45 26.97,-21.27 27.04,-21.07 27.12,-20.87 27.14,-20.65 27.16,-20.44 27.13,-20.22 27.10,-20.01 27.02,-19.81 26.94,-19.61 26.82,-19.43 26.69,-19.26 26.53,-19.12 26.37,-18.97 26.17,-18.88 25.98,-18.78 25.77,-18.73 25.56,-18.68 24.10,-17.17 22.63,-15.65 20.80,-14.18 18.97,-12.70 16.93,-11.04 14.89,-9.38 12.68,-7.66 10.47,-5.95 8.59,-4.53 6.72,-3.12 5.34,-1.99 3.97,-0.87 1.97,0.41 -0.01,1.71 -0.28,1.66 -0.56,1.62 -0.80,1.48 -1.05,1.35 -1.24,1.15 -1.42,0.94 -1.54,0.69 -1.65,0.44 -1.68,0.16 -1.71,-0.10 -1.64,-0.37 -1.58,-0.65 -1.44,-0.88 -1.29,-1.12 -1.08,-1.30 -0.87,-1.47 -0.61,-1.57 -0.35,-1.67 -0.07,-1.69 0.20,-1.70 0.46,-1.62 0.73,-1.54 0.96,-1.39 1.19,-1.23 1.35,-1.01 1.52,-0.78 1.60,-0.52 1.69,-0.26 1.69,0.01 1.69,0.29 1.59,0.55 1.50,0.81 1.33,1.03 1.16,1.25 0.93,1.41 0.70,1.56 0.43,1.63 0.16,1.70 -0.10,1.68 -0.38,1.67 -0.64,1.56 -0.89,1.46 -1.10,1.27 -1.31,1.09 -1.45,0.85 -1.59,0.61 -1.65,0.34 -1.71,0.07 -1.68,-0.19 -1.64,-0.47 -1.52,-0.72 -1.41,-0.97 -1.21,-1.17 -1.02,-1.37 -0.77,-1.50 -0.53,-1.63 -0.25,-1.67 0.01,-1.71 0.01,-1.71 0.01,-1.71 1.04,-2.54 2.07,-3.36 3.50,-4.39 4.94,-5.42 6.76,-6.86 8.59,-8.31 10.72,-10.05 12.84,-11.79 14.82,-13.53 16.79,-15.26 18.56,-16.86 20.34,-18.46 21.68,-19.55 23.02,-20.63 24.10,-21.44 25.18,-22.24 25.40,-22.24 25.61,-22.24 25.82,-22.18 26.03,-22.13 26.22,-22.03 26.41,-21.92 26.57,-21.78 26.73,-21.63 26.85,-21.45 26.97,-21.27 27.04,-21.07 27.12,-20.87 27.14,-20.65 27.16,-20.44 27.13,-20.22 27.10,-20.01 27.02,-19.81 26.94,-19.61 26.82,-19.43 26.69,-19.26 26.53,-19.12 26.37,-18.98 26.17,-18.88 25.98,-18.78 25.77,-18.73 25.56,-18.68 24.96,-18.78 24.35,-18.87 22.67,-18.76 21.00,-18.65 17.96,-18.29 14.93,-17.93 11.23,-17.58 7.53,-17.23 3.55,-17.08 -0.42,-16.93 -3.18,-16.91 -5.94,-16.89 -7.76,-16.97 -9.58,-17.06 -9.76,-17.19 -9.94,-17.32 -10.08,-17.49 -10.22,-17.66 -10.32,-17.86 -10.42,-18.05 -10.47,-18.27 -10.52,-18.49 -10.51,-18.71 -10.51,-18.93 -10.45,-19.14 -10.39,-19.35 -10.28,-19.55 -10.18,-19.74 -10.03,-19.90 -9.88,-20.07 -9.69,-20.19 -9.51,-20.31 -9.30,-20.38 -9.09,-20.46 -8.87,-20.48 -8.65,-20.50 -8.43,-20.47 -8.21,-20.44 -8.01,-20.35 -7.80,-20.27 -7.62,-19.83 -7.44,-19.39 -6.47,-18.78 -5.50,-18.16 -3.29,-17.09 -1.07,-16.02 1.84,-14.55 4.76,-13.09 7.58,-11.62 10.39,-10.15 12.69,-8.91 14.99,-7.68 16.80,-6.62 18.61,-5.56 19.84,-4.41 21.06,-3.27 21.22,-3.09 21.38,-2.92 21.50,-2.71 21.61,-2.50 21.67,-2.27 21.73,-2.05 21.74,-1.81 21.74,-1.57 21.69,-1.34 21.64,-1.11 21.53,-0.90 21.42,-0.69 21.27,-0.51 21.12,-0.33 20.93,-0.19 20.73,-0.05 20.51,0.02 20.29,0.11 20.06,0.15 19.83,0.18 19.59,0.15 19.36,0.13 19.13,0.05 18.91,-0.02 18.71,-0.15 18.52,-0.28 17.83,-1.00 17.13,-1.73 16.19,-2.93 15.24,-4.13 13.94,-6.11 12.64,-8.09 11.44,-10.67 10.24,-13.25 9.27,-15.81 8.30,-18.38 7.64,-20.05 6.98,-21.72 6.37,-23.39 5.75,-25.07 5.85,-25.27 5.94,-25.47 6.08,-25.64 6.22,-25.82 6.39,-25.95 6.57,-26.09 6.77,-26.18 6.98,-26.27 7.20,-26.30 7.41,-26.34 7.64,-26.33 7.86,-26.31 8.07,-26.24 8.28,-26.17 8.47,-26.06 8.66,-25.94 8.81,-25.78 8.97,-25.62 9.08,-25.43 9.20,-25.24 9.26,-25.03 9.33,-24.81 9.34,-24.59 9.35,-24.37 9.31,-24.15 9.26,-23.93 8.88,-23.64 8.50,-23.34 8.01,-22.13 7.53,-20.92 6.87,-18.80 6.20,-16.69 5.43,-14.19 4.65,-11.69 3.98,-9.41 3.31,-7.12 2.84,-5.11 2.37,-3.09 2.16,-1.43 1.96,0.22 1.90,0.45 1.85,0.69 1.74,0.90 1.63,1.11 1.47,1.29 1.31,1.47 1.12,1.60 0.92,1.74 0.70,1.83 0.48,1.91 0.24,1.94 0.00,1.97 -0.22,1.94 -0.46,1.92 -0.68,1.83 -0.90,1.75 -1.10,1.61 -1.30,1.48 -1.46,1.30 -1.62,1.13 -1.73,0.92 -1.84,0.70 -1.90,0.47 -1.95,0.24 -1.96,0.00 -1.96,-0.22 -1.96,-0.22 L -1.96,-0.22 Z"></path></g></svg>