<?xml version="1.0" standalone="no"?>
<!DOCTYPE svg PUBLIC "-//W3C//DTD SVG 1.1//EN" "http://www.w3.org/Graphics/SVG/1.1/DTD/svg11.dtd">
<svg version="1.1" xmlns="http://www.w3.org/2000/svg" viewBox="0 0 50.96809774285657 53.930263613912416" width="101.93619548571314" height="107.86052722782483"><!-- svg-source:excalidraw --><metadata></metadata><defs><style class="style-fonts">
      </style></defs><g transform="translate(19.963648839006055 40.429522129937254) rotate(0 5.520400032422231 -13.464390322981046)" stroke="none"><path fill="#1e1e1e" d="M -1.88,-0.47 Q -1.88,-0.47 -1.14,-3.05 -0.40,-5.62 0.56,-8.42 1.54,-11.23 2.95,-14.71 4.36,-18.20 5.74,-21.38 7.13,-24.57 7.88,-26.32 8.62,-28.08 9.09,-29.31 9.56,-30.54 9.68,-30.73 9.80,-30.92 9.96,-31.08 10.13,-31.24 10.32,-31.35 10.52,-31.47 10.74,-31.53 10.96,-31.60 11.18,-31.61 11.41,-31.61 11.64,-31.57 11.86,-31.52 12.06,-31.43 12.27,-31.33 12.45,-31.19 12.62,-31.04 12.76,-30.86 12.90,-30.68 12.99,-30.47 13.08,-30.26 13.11,-30.04 13.15,-29.81 13.13,-29.59 13.11,-29.36 13.04,-29.14 12.97,-28.93 13.81,-26.55 14.65,-24.17 15.36,-21.34 16.07,-18.50 16.99,-15.71 17.92,-12.91 18.80,-10.69 19.67,-8.47 20.45,-6.90 21.22,-5.33 21.70,-4.35 22.18,-3.36 21.72,-1.80 21.26,-0.23 18.95,0.02 16.64,0.28 14.36,-0.47 12.08,-1.23 9.03,-2.45 5.98,-3.67 2.90,-5.07 -0.17,-6.48 -2.97,-8.17 -5.78,-9.87 -7.40,-11.34 -9.03,-12.80 -9.10,-14.68 -9.16,-16.56 -7.89,-17.47 -6.63,-18.37 -4.06,-18.60 -1.49,-18.82 1.39,-18.82 4.28,-18.81 7.40,-18.71 10.53,-18.61 13.09,-18.51 15.65,-18.42 17.32,-18.29 18.99,-18.17 20.23,-17.14 21.47,-16.10 21.50,-14.79 21.54,-13.48 20.16,-11.83 18.78,-10.18 16.41,-8.85 14.03,-7.52 11.60,-6.40 9.18,-5.28 6.62,-4.21 4.07,-3.13 1.55,-1.94 -0.96,-0.74 -2.78,0.44 -4.60,1.63 -6.17,3.20 -7.75,4.77 -7.98,4.91 -8.22,5.06 -8.48,5.13 -8.75,5.19 -9.03,5.17 -9.30,5.14 -9.55,5.03 -9.80,4.92 -10.01,4.74 -10.21,4.55 -10.35,4.31 -10.48,4.07 -10.53,3.80 -10.58,3.53 -10.54,3.26 -10.50,2.99 -10.38,2.74 -10.26,2.50 -10.06,2.30 -9.87,2.11 -9.62,1.99 -9.37,1.87 -9.10,1.83 -8.83,1.80 -8.56,1.85 -8.29,1.90 -8.05,2.04 -7.81,2.18 -7.63,2.38 -7.44,2.59 -7.34,2.84 -7.23,3.09 -7.21,3.37 -7.19,3.64 -7.25,3.91 -7.32,4.18 -7.47,4.41 -7.62,4.64 -7.84,4.81 -8.05,4.98 -8.31,5.07 -8.57,5.17 -8.84,5.17 -9.12,5.18 -9.38,5.10 -9.64,5.02 -9.87,4.85 -10.09,4.69 -10.25,4.47 -10.41,4.24 -10.49,3.98 -10.57,3.72 -10.56,3.44 -10.55,3.17 -10.45,2.91 -10.36,2.65 -10.18,2.44 -10.01,2.22 -10.01,2.22 -10.01,2.22 -8.12,0.71 -6.23,-0.79 -4.27,-2.13 -2.31,-3.47 0.23,-4.76 2.77,-6.06 5.22,-7.20 7.67,-8.34 9.91,-9.53 12.14,-10.71 14.00,-11.87 15.85,-13.04 17.14,-13.99 18.43,-14.93 17.00,-15.18 15.57,-15.42 13.02,-15.44 10.47,-15.47 7.41,-15.47 4.35,-15.48 1.60,-15.36 -1.13,-15.24 -3.89,-14.96 -6.65,-14.69 -5.41,-13.63 -4.18,-12.56 -1.51,-11.04 1.14,-9.52 4.18,-8.28 7.22,-7.03 10.19,-6.02 13.16,-5.01 15.74,-4.51 18.32,-4.01 17.61,-5.67 16.91,-7.33 15.94,-9.61 14.97,-11.88 13.92,-14.76 12.87,-17.63 12.03,-20.48 11.19,-23.32 10.59,-25.42 9.99,-27.52 9.77,-29.03 9.56,-30.54 9.68,-30.73 9.80,-30.92 9.96,-31.08 10.13,-31.24 10.32,-31.35 10.52,-31.47 10.74,-31.53 10.96,-31.60 11.18,-31.61 11.41,-31.61 11.64,-31.57 11.86,-31.52 12.06,-31.43 12.27,-31.33 12.45,-31.19 12.62,-31.04 12.76,-30.86 12.90,-30.68 12.99,-30.47 13.08,-30.26 13.11,-30.04 13.15,-29.81 13.13,-29.59 13.11,-29.36 13.04,-29.14 12.97,-28.93 12.21,-27.88 11.45,-26.83 10.67,-25.11 9.88,-23.40 8.57,-20.23 7.26,-17.07 5.97,-13.64 4.68,-10.21 3.86,-7.48 3.03,-4.74 2.46,-2.13 1.88,0.47 1.80,0.69 1.71,0.91 1.58,1.10 1.44,1.30 1.27,1.45 1.09,1.60 0.88,1.71 0.67,1.82 0.44,1.87 0.22,1.93 -0.01,1.93 -0.24,1.93 -0.47,1.87 -0.70,1.81 -0.90,1.70 -1.11,1.59 -1.29,1.43 -1.46,1.28 -1.59,1.08 -1.73,0.89 -1.81,0.67 -1.89,0.45 -1.92,0.21 -1.94,-0.01 -1.91,-0.24 -1.88,-0.47 -1.88,-0.47 L -1.88,-0.47 Z"></path></g></svg>